STARTFONT 2.1
COMMENT extracted from data tables in BSD banner.c by Mary Ann Horton
COMMENT see https://github.com/freebsd/freebsd-src/blob/main/usr.bin/banner/banner.c
FONT --Bsd~Banner-Regular-R-Normal--124-1240-72-72-P-338-FONTSPECIFIC-0
SIZE 124 72 72
FONTBOUNDINGBOX 62 123 0 1
METRICSSET 2
STARTPROPERTIES 17
PIXEL_SIZE 124
RESOLUTION_X 72
RESOLUTION_Y 72
POINT_SIZE 1240
FACE_NAME "BSD Banner"
FOUNDRY ""
FAMILY_NAME "Bsd-Banner"
WEIGHT_NAME "Regular"
RELATIVE_WEIGHT 50
SLANT "R"
SPACING "P"
SETWIDTH_NAME "Normal"
RELATIVE_SETWIDTH 50
ADD_STYLE_NAME ""
AVERAGE_WIDTH 338
CHARSET_REGISTRY "FONTSPECIFIC"
CHARSET_ENCODING "0"
ENDPROPERTIES
CHARS 84
STARTCHAR space
ENCODING 32
SWIDTH 290 0
DWIDTH 36 0
BBX 0 0 35 128
VVECTOR 53 128
SWIDTH1 0 -1032
DWIDTH1 0 -128
BITMAP 
ENDCHAR
STARTCHAR exclam
ENCODING 33
SWIDTH 97 0
DWIDTH 12 0
BBX 9 90 0 30
VVECTOR 4 128
SWIDTH1 0 -1032
DWIDTH1 0 -128
BITMAP 
0800
1C00
1C00
3E00
3E00
3E00
7F00
7F00
7F00
7F00
7F00
FF80
FF80
FF80
FF80
FF80
FF80
FF80
FF80
FF80
FF80
FF80
FF80
FF80
FF80
FF80
FF80
FF80
FF80
FF80
7F00
7F00
7F00
7F00
7F00
7F00
7F00
7F00
7F00
7F00
7F00
7F00
7F00
7F00
7F00
7F00
3E00
3E00
3E00
3E00
3E00
3E00
3E00
3E00
3E00
3E00
1C00
1C00
1C00
1C00
1C00
1C00
1C00
1C00
1C00
1C00
0800
0000
0000
0000
0000
0000
0000
0000
0000
0000
1C00
3E00
7F00
7F00
FF80
FF80
FF80
FF80
FF80
FF80
7F00
7F00
3E00
1C00
ENDCHAR
STARTCHAR quotedbl
ENCODING 34
SWIDTH 97 0
DWIDTH 12 0
BBX 9 24 0 95
VVECTOR 4 128
SWIDTH1 0 -1032
DWIDTH1 0 -128
BITMAP 
0800
0800
1000
1000
1000
3000
3000
3000
7800
7800
7C00
FC00
FE00
FF00
FF80
FF80
FF80
FF80
FF80
FF80
7F00
7F00
3E00
1C00
ENDCHAR
STARTCHAR numbersign
ENCODING 35
SWIDTH 153 0
DWIDTH 19 0
BBX 17 28 0 82
VVECTOR 8 128
SWIDTH1 0 -1032
DWIDTH1 0 -128
BITMAP 
1C1C00
1C1C00
1C1C00
1C1C00
1C1C00
FFFF80
FFFF80
FFFF80
FFFF80
1C1C00
1C1C00
1C1C00
1C1C00
1C1C00
1C1C00
1C1C00
1C1C00
1C1C00
1C1C00
FFFF80
FFFF80
FFFF80
FFFF80
1C1C00
1C1C00
1C1C00
1C1C00
1C1C00
ENDCHAR
STARTCHAR dollar
ENCODING 36
SWIDTH 306 0
DWIDTH 38 0
BBX 36 97 0 27
VVECTOR 18 128
SWIDTH1 0 -1032
DWIDTH1 0 -128
BITMAP 
000E070000
000E070000
000E070000
001FFF8000
007FFFE000
01FFFFF800
03FFFFFC00
07FE07FE00
0FEE071F00
1FCE070F80
3F8E0707C0
7F8E0703E0
7F0E0701F0
FF0E0700E0
FE0E070040
FE0E070000
FE0E070000
FC0E070000
FC0E070000
FC0E070000
FC0E070000
F80E070000
F80E070000
F80E070000
F80E070000
F80E070000
F80E070000
F80E070000
FC0E070000
FC0E070000
FC0E070000
FE0E070000
FE0E070000
FE0E070000
FF0E070000
FF8E070000
FF8E070000
FFCE070000
FFFE070000
FFFE070000
7FFE070000
7FFFF70000
7FFFFF0000
3FFFFF0000
3FFFFF8000
1FFFFFE000
1FFFFFF800
0FFFFFFC00
07FFFFFE00
03FFFFFF00
01FFFFFF80
007FFFFF80
001FFFFFC0
000FFFFFC0
000FFFFFE0
000EFFFFE0
000E07FFE0
000E07FFF0
000E07FFF0
000E073FF0
000E071FF0
000E071FF0
000E070FF0
000E0707F0
000E0707F0
000E0707F0
000E0703F0
000E0703F0
000E0703F0
000E0701F0
000E0701F0
000E0701F0
000E0701F0
000E0701F0
000E0701F0
000E0701F0
000E0703F0
000E0703F0
000E0703F0
000E0703F0
000E0707F0
000E0707F0
200E0707F0
700E070FF0
F80E070FE0
7C0E071FE0
3E0E071FC0
1F0E073F80
0F8E073F00
07EE07FE00
03FFFFFC00
01FFFFF800
007FFFE000
001FFF8000
000E070000
000E070000
000E070000
ENDCHAR
STARTCHAR percent
ENCODING 37
SWIDTH 274 0
DWIDTH 34 0
BBX 32 92 0 30
VVECTOR 16 128
SWIDTH1 0 -1032
DWIDTH1 0 -128
BITMAP 
00000001
00000007
03C00007
0FF00007
1FF8000E
1E78000E
3C3C000E
781E001E
700E001C
700E001C
E007003C
E0070038
E0070038
E0070078
E0070070
E0070070
E00700F0
E00700E0
E00700E0
700E01E0
700E01C0
781E01C0
3C3C03C0
1E780380
1FF80380
0FF00780
03C00700
00000700
00000F00
00000E00
00000E00
00001E00
00001C00
00001C00
00003C00
00003800
00003800
00007800
00007000
00007000
0000F000
0000E000
0000E000
0001E000
0001C000
0001C000
0003C000
00038000
00038000
00078000
00070000
00070000
000F0000
000E0000
000E0000
001E0000
001C0000
001C0000
003C0000
00380000
00380000
00780000
00700000
00700000
00F00000
00E00000
00E003C0
01E00FF0
01C01FF8
01C01E78
03C03C3C
0380781E
0380700E
0780700F
0700E007
0700E007
0F00E007
0E00E007
0E00E007
1E00E007
1C00E007
1C00E007
3C00E006
3800700E
3800700E
7800781E
70003C3C
70001E78
F0001FF8
E0000FF0
E00003C0
E0000000
ENDCHAR
STARTCHAR ampersand
ENCODING 38
SWIDTH 242 0
DWIDTH 30 0
BBX 27 74 0 20
VVECTOR 13 128
SWIDTH1 0 -1032
DWIDTH1 0 -128
BITMAP 
00078000
00078000
00078000
00078000
00078000
00078000
00078000
00078000
00078000
00078000
000FC000
003FF000
00FFFC00
01FFFE00
03FFBF00
07F78F80
07E78780
0FC787C0
0FC783C0
1F8783E0
1F8781C0
3F078180
3F078000
7F078000
7F078000
7F078000
7E078000
7E078000
FE078000
FE078000
FE078000
FE078000
FE078000
FE078000
FE078000
FE078000
FE078000
FE078000
FE078000
FE078000
FE078000
FE078000
FE078000
FE078000
FE078000
FE078000
7E078000
7E078000
7F078000
7F078000
7F078000
3F078020
3F078060
1F878060
1F8780E0
0FC780C0
0FC781C0
07E78380
07F78780
03FF9F00
01FFFE00
00FFFC00
003FF000
000FC000
00078000
00078000
00078000
00078000
00078000
00078000
00078000
00078000
00078000
00078000
ENDCHAR
STARTCHAR quotesingle
ENCODING 39
SWIDTH 97 0
DWIDTH 12 0
BBX 9 24 0 97
VVECTOR 4 128
SWIDTH1 0 -1032
DWIDTH1 0 -128
BITMAP 
1C00
3E00
7F00
7F00
FF80
FF80
FF80
FF80
FF80
FF80
7F80
7F80
3F80
1F00
0F00
0F00
0600
0600
0600
0400
0400
0400
0800
0800
ENDCHAR
STARTCHAR parenleft
ENCODING 40
SWIDTH 153 0
DWIDTH 19 0
BBX 16 91 0 30
VVECTOR 7 128
SWIDTH1 0 -1032
DWIDTH1 0 -128
BITMAP 
0007
000E
003E
007E
00FE
00FC
01FC
01FC
03FC
03F8
03F8
07F8
07F8
07F8
0FF0
0FF0
0FF0
0FF0
1FF0
1FE0
1FE0
1FE0
3FE0
3FE0
3FE0
3FC0
3FC0
7FC0
7FC0
7FC0
7FC0
7F80
7F80
FF80
FF80
FF80
FF80
FF80
FF80
FF80
FF80
FF80
FF80
FF80
FF80
FF80
FF80
FF80
FF80
FF80
FF80
FF80
FF80
FF80
FF80
FF80
FF80
FF80
7F80
7F80
7FC0
7FC0
7FC0
7FC0
3FC0
3FC0
3FE0
3FE0
3FE0
1FE0
1FE0
1FE0
1FF0
0FF0
0FF0
0FF0
0FF0
07F8
07F8
07F8
03F8
03F8
03FC
01FC
01FC
00FC
00FE
007E
003E
000E
0007
ENDCHAR
STARTCHAR parenright
ENCODING 41
SWIDTH 153 0
DWIDTH 19 0
BBX 16 91 0 30
VVECTOR 7 128
SWIDTH1 0 -1032
DWIDTH1 0 -128
BITMAP 
E000
7000
7C00
7E00
7F00
3F00
3F80
3F80
3FC0
1FC0
1FC0
1FE0
1FE0
1FE0
0FF0
0FF0
0FF0
0FF0
0FF8
07F8
07F8
07F8
07FC
07FC
07FC
03FC
03FC
03FE
03FE
03FE
03FE
01FE
01FE
01FF
01FF
01FF
01FF
01FF
01FF
01FF
01FF
01FF
01FF
01FF
01FF
01FF
01FF
01FF
01FF
01FF
01FF
01FF
01FF
01FF
01FF
01FF
01FF
01FF
01FE
01FE
03FE
03FE
03FE
03FE
03FC
03FC
07FC
07FC
07FC
07F8
07F8
07F8
0FF8
0FF0
0FF0
0FF0
0FF0
1FE0
1FE0
1FE0
1FC0
1FC0
3FC0
3F80
3F80
3F00
7F00
7E00
7C00
7000
E000
ENDCHAR
STARTCHAR asterisk
ENCODING 42
SWIDTH 210 0
DWIDTH 26 0
BBX 24 40 0 62
VVECTOR 12 128
SWIDTH1 0 -1032
DWIDTH1 0 -128
BITMAP 
001C00
001C00
001C00
001C00
081C08
0C1C18
1C1C1C
1E1C3C
0E1C38
0F1C78
079CF0
079CF0
03DDE0
03DDE0
01FFC0
00FF80
00FF80
00FF80
FFFFFF
FFFFFF
FFFFFF
FFFFFF
00FF80
00FF80
00FF80
01FFC0
03DDE0
03DDE0
079CF0
079CF0
0F1C78
0E1C38
1E1C3C
1C1C1C
0C1C18
081C08
001C00
001C00
001C00
001C00
ENDCHAR
STARTCHAR plus
ENCODING 43
SWIDTH 218 0
DWIDTH 27 0
BBX 25 42 0 41
VVECTOR 12 128
SWIDTH1 0 -1032
DWIDTH1 0 -128
BITMAP 
001C0000
001C0000
001C0000
001C0000
001C0000
001C0000
001C0000
001C0000
001C0000
001C0000
001C0000
001C0000
001C0000
001C0000
001C0000
001C0000
001C0000
001C0000
001C0000
FFFFFF80
FFFFFF80
FFFFFF80
FFFFFF80
001C0000
001C0000
001C0000
001C0000
001C0000
001C0000
001C0000
001C0000
001C0000
001C0000
001C0000
001C0000
001C0000
001C0000
001C0000
001C0000
001C0000
001C0000
001C0000
ENDCHAR
STARTCHAR comma
ENCODING 44
SWIDTH 97 0
DWIDTH 12 0
BBX 9 24 0 20
VVECTOR 4 128
SWIDTH1 0 -1032
DWIDTH1 0 -128
BITMAP 
1C00
3E00
7F00
7F00
FF80
FF80
FF80
FF80
FF80
FF80
7F80
7F80
3F80
1F00
0F00
0F00
0700
0600
0600
0600
0400
0400
0800
0800
ENDCHAR
STARTCHAR hyphen
ENCODING 45
SWIDTH 210 0
DWIDTH 26 0
BBX 24 4 0 60
VVECTOR 12 128
SWIDTH1 0 -1032
DWIDTH1 0 -128
BITMAP 
FFFFFF
FFFFFF
FFFFFF
FFFFFF
ENDCHAR
STARTCHAR period
ENCODING 46
SWIDTH 97 0
DWIDTH 12 0
BBX 9 14 0 30
VVECTOR 4 128
SWIDTH1 0 -1032
DWIDTH1 0 -128
BITMAP 
1C00
3E00
7F00
7F00
FF80
FF80
FF80
FF80
FF80
FF80
7F00
7F00
3E00
1C00
ENDCHAR
STARTCHAR slash
ENCODING 47
SWIDTH 274 0
DWIDTH 34 0
BBX 32 91 0 30
VVECTOR 16 128
SWIDTH1 0 -1032
DWIDTH1 0 -128
BITMAP 
00000007
00000007
00000007
0000000F
0000000E
0000000E
0000001E
0000001C
0000001C
0000003C
00000038
00000038
00000078
00000070
00000070
000000F0
000000E0
000000E0
000001E0
000001C0
000001C0
000003C0
00000380
00000380
00000780
00000700
00000700
00000F00
00000E00
00000E00
00001E00
00001C00
00001C00
00003C00
00003800
00003800
00007800
00007000
00007000
0000F000
0000E000
0000E000
0001E000
0001C000
0001C000
0003C000
00038000
00038000
00078000
00070000
00070000
000F0000
000E0000
000E0000
001E0000
001C0000
001C0000
003C0000
00380000
00380000
00780000
00700000
00700000
00F00000
00E00000
00E00000
01E00000
01C00000
01C00000
03C00000
03800000
03800000
07800000
07000000
07000000
0F000000
0E000000
0E000000
1E000000
1C000000
1C000000
3C000000
38000000
38000000
78000000
70000000
70000000
F0000000
E0000000
E0000000
E0000000
ENDCHAR
STARTCHAR zero
ENCODING 48
SWIDTH 306 0
DWIDTH 38 0
BBX 36 91 0 30
VVECTOR 18 128
SWIDTH1 0 -1032
DWIDTH1 0 -128
BITMAP 
0001F80000
0007FE0000
000FFF0000
001FFF8000
003F0FC000
007E07E000
00FC03F000
01F801F800
01F801F800
03F000FC00
03F000FC00
07F000FE00
07E0007E00
0FE0007F00
0FE0007F00
0FC0003F00
1FC0003F80
1FC0003F80
1FC0003F80
3FC0003FC0
3F80001FC0
3F80001FC0
3F80001FC0
7F80001FE0
7F80001FE0
7F80001FE0
7F80001FE0
7F80001FE0
7F80001FE0
7F80001FE0
FF80001FF0
FF80001FF0
FF80001FF0
FF80001FF0
FF80001FF0
FF80001FF0
FF80001FF0
FF80001FF0
FF80001FF0
FF80001FF0
FF80001FF0
FF80001FF0
FF80001FF0
FF80001FF0
FF80001FF0
FF80001FF0
FF80001FF0
FF80001FF0
FF80001FF0
FF80001FF0
FF80001FF0
FF80001FF0
FF80001FF0
FF80001FF0
FF80001FF0
FF80001FF0
FF80001FF0
FF80001FF0
FF80001FF0
FF80001FF0
FF80001FF0
7F80001FE0
7F80001FE0
7F80001FE0
7F80001FE0
7F80001FE0
7F80001FE0
7F80001FE0
3F80001FC0
3F80001FC0
3F80001FC0
3FC0003FC0
1FC0003F80
1FC0003F80
1FC0003F80
0FC0003F00
0FE0007F00
0FE0007F00
07E0007E00
07F000FE00
03F000FC00
03F000FC00
01F801F800
01F801F800
00FC03F000
007E07E000
003F0FC000
001FFF8000
000FFF0000
0007FE0000
0001F80000
ENDCHAR
STARTCHAR one
ENCODING 49
SWIDTH 153 0
DWIDTH 19 0
BBX 17 91 0 30
VVECTOR 8 128
SWIDTH1 0 -1032
DWIDTH1 0 -128
BITMAP 
000800
000800
001800
001800
003800
003800
007800
007800
00F800
01F800
01F800
03F800
03F800
07F800
07F800
0FF800
1FF800
1FF800
3FF800
3FF800
7FF800
0FF800
0FF800
0FF800
0FF800
0FF800
0FF800
0FF800
0FF800
0FF800
0FF800
0FF800
0FF800
0FF800
0FF800
0FF800
0FF800
0FF800
0FF800
0FF800
0FF800
0FF800
0FF800
0FF800
0FF800
0FF800
0FF800
0FF800
0FF800
0FF800
0FF800
0FF800
0FF800
0FF800
0FF800
0FF800
0FF800
0FF800
0FF800
0FF800
0FF800
0FF800
0FF800
0FF800
0FF800
0FF800
0FF800
0FF800
0FF800
0FF800
0FF800
0FF800
0FF800
0FF800
0FF800
0FF800
0FF800
0FF800
0FF800
0FF800
0FF800
0FF800
0FF800
0FF800
0FF800
0FF800
0FF800
FFFF80
FFFF80
FFFF80
FFFF80
ENDCHAR
STARTCHAR two
ENCODING 50
SWIDTH 315 0
DWIDTH 39 0
BBX 37 91 0 30
VVECTOR 18 128
SWIDTH1 0 -1032
DWIDTH1 0 -128
BITMAP 
000FFE0000
003FFF8000
00FFFFE000
01FFFFF000
03F83FF800
07E00FFC00
0FC007FE00
1F8003FE00
3F0001FF00
060001FF00
000000FF80
000000FF80
0000007FC0
0000007FC0
0000003FC0
0000003FC0
0000003FE0
0000003FE0
0000001FE0
0000001FE0
0000001FF0
0000001FF0
0000001FF0
0000001FF0
0000001FF0
0000001FF0
0000001FF0
0000001FF0
0000001FF0
0000001FF0
0000001FF0
0000001FF0
0000001FF0
0000003FF0
0000003FF0
0000003FE0
0000003FE0
0000007FE0
0000007FE0
000000FFC0
000000FFC0
000001FFC0
000001FF80
000003FF80
000007FF00
000007FF00
00000FFE00
00000FFE00
00001FFC00
00003FFC00
00007FF800
00007FF000
0000FFE000
0001FFC000
0001FF8000
0003FF0000
0007FC0000
0007F80000
000FF00000
000FE00000
001FC00000
001F800000
003F000000
003E000000
007C000000
0078000000
00F0000000
00F0000000
01E0000000
01E0000000
03C0000000
03C0000000
0380000000
0780000008
0700000010
0F00000070
0F000001F0
0FFFFFFFE0
1FFFFFFFE0
1FFFFFFFE0
1FFFFFFFE0
3FFFFFFFC0
3FFFFFFFC0
3FFFFFFFC0
7FFFFFFFC0
7FFFFFFF80
7FFFFFFF80
7FFFFFFF80
FFFFFFFF00
FFFFFFFF00
FFFFFFFF00
ENDCHAR
STARTCHAR three
ENCODING 51
SWIDTH 306 0
DWIDTH 38 0
BBX 35 91 1 30
VVECTOR 19 128
SWIDTH1 0 -1032
DWIDTH1 0 -128
BITMAP 
000FF00000
007FFC0000
01FFFF0000
03FFFF8000
07F03FC000
0FE01FE000
1FC00FF000
1F8007F800
3F0007F800
7E0003FC00
1E0003FC00
040001FC00
000001FE00
000001FE00
000000FE00
000000FF00
000000FF00
000000FF00
000000FF00
000000FF00
000000FF00
000000FF00
000000FF00
000000FF00
000000FF00
000000FF00
000000FE00
000001FE00
000001FE00
000001FC00
000001FC00
000003FC00
000003F800
000007F800
000007F000
00000FF000
00000FE000
00001FC000
00003F8000
00007F0000
0000FF0000
0000FF0000
00007F8000
00003FC000
00001FE000
00000FF000
000007F800
000007FC00
000003FC00
000003FE00
000001FE00
000001FF00
000001FF00
000000FF80
000000FF80
000000FF80
0000007FC0
0000007FC0
0000007FC0
0000007FC0
0000003FC0
0000003FE0
0000003FE0
0000003FE0
0000003FE0
0000003FE0
0000003FE0
0000003FE0
0000003FE0
0000003FE0
0000003FE0
0000003FE0
0000003FC0
0000007FC0
0000007FC0
0000007FC0
000000FF80
100000FF80
300000FF80
780001FF00
F80001FF00
FC0003FE00
FE0003FE00
7F0007FC00
3F800FFC00
1FC01FF800
0FF07FF000
07FFFFE000
03FFFFC000
00FFFF0000
003FFC0000
ENDCHAR
STARTCHAR four
ENCODING 52
SWIDTH 323 0
DWIDTH 40 0
BBX 38 91 0 30
VVECTOR 19 128
SWIDTH1 0 -1032
DWIDTH1 0 -128
BITMAP 
0000000040
0000000040
00000000C0
00000000C0
00000001C0
00000001C0
00000003C0
00000003C0
00000007C0
00000007C0
0000000FC0
0000000FC0
0000000FC0
0000001FC0
0000001FC0
0000003FC0
0000003FC0
0000007FC0
0000007FC0
000000FFC0
000000FFC0
000001FFC0
000001FFC0
000003FFC0
000003FFC0
000007FFC0
000007FFC0
000007FFC0
00000F7FC0
00000F7FC0
00001E7FC0
00001E7FC0
00003C7FC0
00003C7FC0
00007C7FC0
0000787FC0
0000F87FC0
0000F07FC0
0001F07FC0
0001E07FC0
0003E07FC0
0003C07FC0
0003C07FC0
0007807FC0
0007807FC0
000F007FC0
000F007FC0
001E007FC0
001E007FC0
003E007FC0
003C007FC0
007C007FC0
0078007FC0
00F8007FC0
00F0007FC0
01F0007FC0
01E0007FC0
01E0007FC0
03FFFFFFFC
03FFFFFFFC
07FFFFFFFC
07FFFFFFFC
0FFFFFFFFC
0FFFFFFFFC
1FFFFFFFFC
1FFFFFFFFC
3FFFFFFFFC
3FFFFFFFFC
7FFFFFFFFC
7FFFFFFFFC
7FFFFFFFFC
FFFFFFFFFC
0000007FC0
0000007FC0
0000007FC0
0000007FC0
0000007FC0
0000007FC0
0000007FC0
0000007FC0
0000007FC0
0000007FC0
0000007FC0
0000007FC0
0000007FC0
0000007FC0
0000007FC0
000007FFFC
000007FFFC
000007FFFC
000007FFFC
ENDCHAR
STARTCHAR five
ENCODING 53
SWIDTH 290 0
DWIDTH 36 0
BBX 34 91 0 30
VVECTOR 17 128
SWIDTH1 0 -1032
DWIDTH1 0 -128
BITMAP 
03FFFFFFC0
03FFFFFFC0
03FFFFFF80
03FFFFFF80
07FFFFFF80
07FFFFFF80
07FFFFFF00
07FFFFFF00
07FFFFFF00
07FFFFFF00
07FFFFFE00
07FFFFFE00
07FFFFFE00
0FFFFFFE00
0F00000000
0F00000000
0F00000000
0F00000000
0F00000000
0E00000000
0E00000000
0E00000000
1E00000000
1E00000000
1E00000000
1E00000000
1E00000000
1E00000000
1E00000000
1C00000000
1C00000000
1C00000000
3C00000000
3C07F00000
3C3FFE0000
3CFFFF0000
3DFFFF8000
3FFFFFC000
3FFFFFE000
3FFFFFF000
3F83FFF000
7C007FF800
70001FF800
40000FFC00
00000FFC00
000007FE00
000007FE00
000003FE00
000003FE00
000003FF00
000001FF00
000001FF00
000001FF00
000001FF00
000000FF80
000000FF80
000000FF80
000000FF80
000000FF80
000000FF80
000000FF80
000000FF80
000000FF80
000000FF80
000000FF80
000000FF80
000000FF80
000000FF80
000000FF80
000000FF80
000000FF00
000000FF00
000000FF00
000001FF00
000001FE00
000001FE00
000001FE00
000001FC00
000003FC00
000003FC00
100003F800
380007F800
7C0007F000
FE000FF000
7F001FE000
3F803FC000
1FE0FF8000
0FFFFF0000
07FFFC0000
01FFF00000
003FC00000
ENDCHAR
STARTCHAR six
ENCODING 54
SWIDTH 298 0
DWIDTH 37 0
BBX 35 91 0 30
VVECTOR 17 128
SWIDTH1 0 -1032
DWIDTH1 0 -128
BITMAP 
0001FF8000
0007FFE000
001FFFF000
003FFFFC00
007F80FE00
00FE003F00
00FC001F80
01F8000F00
03F8000600
03F0000000
07F0000000
07E0000000
0FE0000000
0FE0000000
1FC0000000
1FC0000000
1FC0000000
3FC0000000
3FC0000000
3FC0000000
3F80000000
7F80000000
7F80000000
7F80000000
7F80000000
7F80000000
FF80000000
FF80000000
FF80000000
FF80000000
FF80000000
FF80000000
FF80000000
FF80000000
FF807F0000
FF81FFC000
FF83FFE000
FF87FFF000
FF8FFFF800
FF9E07FC00
FFBC03FE00
FFB801FE00
FFF000FF00
FFF000FF00
FFE0007F80
FFC0007F80
FFC0003F80
FF80003FC0
FF80003FC0
FF80003FC0
FF80003FC0
FF80003FC0
FF80001FC0
FF80001FE0
FF80001FE0
FF80001FE0
FF80001FE0
FF80001FE0
FF80001FE0
FF80001FE0
FF80001FE0
FF80001FE0
FF80001FE0
FF80001FE0
FF80001FE0
7F80001FE0
7F80001FE0
7F80001FE0
7F80001FE0
7F80001FE0
3F80001FC0
3FC0003FC0
3FC0003FC0
3FC0003FC0
1FC0003F80
1FC0003F80
1FC0003F80
0FE0007F00
0FE0007F00
07E0007E00
07F000FE00
03F000FC00
03F801FC00
01F801F800
00FC03F000
00FE07F000
007F0FE000
003FFFC000
001FFF8000
0007FE0000
0001F80000
ENDCHAR
STARTCHAR seven
ENCODING 55
SWIDTH 306 0
DWIDTH 38 0
BBX 36 91 0 30
VVECTOR 18 128
SWIDTH1 0 -1032
DWIDTH1 0 -128
BITMAP 
0FFFFFFFF0
0FFFFFFFE0
0FFFFFFFE0
0FFFFFFFE0
1FFFFFFFC0
1FFFFFFFC0
1FFFFFFFC0
1FFFFFFF80
3FFFFFFF80
3FFFFFFF80
3FFFFFFF00
3FFFFFFF00
7FFFFFFF00
7FFFFFFF00
7800000E00
7000000E00
E000001E00
C000001C00
0000001C00
0000003C00
0000003C00
0000003800
0000007800
0000007800
000000F800
000000F000
000000F000
000001F000
000001F000
000001F000
000003E000
000003E000
000003E000
000007E000
000007E000
000007C000
000007C000
00000FC000
00000FC000
00000FC000
00000F8000
00001F8000
00001F8000
00001F8000
00001F8000
00003F8000
00003F8000
00003F0000
00003F0000
00007F0000
00007F0000
00007F0000
00007F0000
00007F0000
0000FF0000
0000FF0000
0000FF0000
0000FE0000
0000FE0000
0000FE0000
0001FE0000
0001FE0000
0001FC0000
0001FC0000
0001FC0000
0001FC0000
0003FC0000
0003FC0000
0003FC0000
0003FC0000
0003FC0000
0003FC0000
0003FC0000
0003FC0000
0007FC0000
0007FC0000
0007FC0000
0007FC0000
0007FC0000
0007FC0000
0007FC0000
000FFC0000
000FFC0000
000FFC0000
000FFC0000
000FFC0000
000FFC0000
000FFC0000
000FFC0000
000FFC0000
000FFC0000
ENDCHAR
STARTCHAR eight
ENCODING 56
SWIDTH 306 0
DWIDTH 38 0
BBX 36 91 0 30
VVECTOR 18 128
SWIDTH1 0 -1032
DWIDTH1 0 -128
BITMAP 
0001FC0000
000FFF0000
001FFFC000
003FFFE000
007F87F000
00FF03F800
01FE01F800
01FC00FC00
03F8007C00
03F8007E00
07F0007E00
07F0003F00
07F0003F00
0FE0003F00
0FE0003F00
0FE0001F80
0FE0001F80
1FE0001F80
1FE0001F80
1FE0001F80
1FE0001F80
1FE0001F80
1FE0001F80
1FE0001F80
1FE0001F80
1FF0001F00
1FF0001F00
1FF8001F00
1FF8003E00
0FFC003E00
0FFC003E00
0FFE007C00
0FFF007C00
07FF807800
07FFE0F800
03FFF1F000
03FFFBE000
01FFFFC000
01FFFFC000
00FFFFC000
00FFFFE000
007FFFF000
003FFFF800
003FFFFC00
007FFFFC00
00FFFFFE00
01F3FFFE00
03E1FFFF00
07E0FFFF00
0FC03FFF80
0FC01FFF80
1F8007FFC0
1F8003FFC0
3F8001FFC0
3F0000FFE0
3F0000FFE0
7F00007FE0
7F00007FE0
7E00003FF0
7E00003FF0
FE00003FF0
FE00001FF0
FE00001FF0
FE00001FF0
FE00001FF0
FE00001FF0
FE00001FF0
FE00001FF0
FE00001FF0
FE00001FF0
FE00001FF0
FE00001FF0
FE00001FF0
7E00001FE0
7F00001FE0
7F00003FE0
7F00003FE0
3F80003FC0
3F80007FC0
1F80007F80
1FC0007F80
0FC000FF00
0FE001FF00
07E001FE00
07F003FE00
03F807FC00
01FE1FF800
00FFFFF000
007FFFE000
003FFFC000
001FFF8000
ENDCHAR
STARTCHAR nine
ENCODING 57
SWIDTH 298 0
DWIDTH 37 0
BBX 35 91 0 30
VVECTOR 17 128
SWIDTH1 0 -1032
DWIDTH1 0 -128
BITMAP 
0003F00000
000FFC0000
003FFF0000
007FFF8000
00FE1FC000
01FC0FE000
01F807E000
03F003F000
07F003F800
07E001F800
0FE001FC00
0FC000FC00
1FC000FE00
1F8000FE00
3F80007F00
3F80007F00
3F80007F00
7F80007F80
7F80007F80
7F80007F80
7F00003F80
FF00003FC0
FF00003FC0
FF00003FC0
FF00003FC0
FF00003FC0
FF00003FE0
FF00003FE0
FF00003FE0
FF00003FE0
FF00003FE0
FF00003FE0
FF00003FE0
FF00003FE0
FF00003FE0
FF00003FE0
FF00003FE0
FF00003FE0
7F80003FE0
7F80003FE0
7F80003FE0
7F80003FE0
7F80003FE0
7F80003FE0
3FC0007FE0
3FC0007FE0
3FC000FFE0
1FE001FFE0
1FE001FFE0
0FF003BFE0
0FF807BFE0
07FC0F3FE0
03FFFE3FE0
01FFFC3FE0
00FFF83FE0
003FF03FE0
001FC03FE0
0000003FE0
0000003FE0
0000003FE0
0000003FE0
0000003FE0
0000003FE0
0000003FE0
0000003FE0
0000003FC0
0000003FC0
0000003FC0
0000003FC0
0000003FC0
0000003F80
0000007F80
0000007F80
0000007F80
0000007F00
0000007F00
0000007F00
000000FE00
000000FE00
000000FC00
000001FC00
000001F800
0C0003F800
1E0003F000
3F0007E000
1FC00FE000
0FC01FC000
07FFFF8000
01FFFF0000
00FFFC0000
003FF00000
ENDCHAR
STARTCHAR colon
ENCODING 58
SWIDTH 97 0
DWIDTH 12 0
BBX 9 54 0 30
VVECTOR 4 128
SWIDTH1 0 -1032
DWIDTH1 0 -128
BITMAP 
1C00
3E00
7F00
7F00
FF80
FF80
FF80
FF80
FF80
FF80
7F00
7F00
3E00
1C00
0000
0000
0000
0000
0000
0000
0000
0000
0000
0000
0000
0000
0000
0000
0000
0000
0000
0000
0000
0000
0000
0000
0000
0000
0000
0000
1C00
3E00
7F00
7F00
FF80
FF80
FF80
FF80
FF80
FF80
7F00
7F00
3E00
1C00
ENDCHAR
STARTCHAR semicolon
ENCODING 59
SWIDTH 97 0
DWIDTH 12 0
BBX 9 64 0 20
VVECTOR 4 128
SWIDTH1 0 -1032
DWIDTH1 0 -128
BITMAP 
1C00
3E00
7F00
7F00
FF80
FF80
FF80
FF80
FF80
FF80
7F00
7F00
3E00
1C00
0000
0000
0000
0000
0000
0000
0000
0000
0000
0000
0000
0000
0000
0000
0000
0000
0000
0000
0000
0000
0000
0000
0000
0000
0000
0000
1C00
3E00
7F00
7F00
FF80
FF80
FF80
FF80
FF80
FF80
7F80
7F80
3F80
1F00
0F00
0F00
0700
0600
0600
0600
0400
0400
0800
0800
ENDCHAR
STARTCHAR equal
ENCODING 61
SWIDTH 210 0
DWIDTH 26 0
BBX 24 14 0 53
VVECTOR 12 128
SWIDTH1 0 -1032
DWIDTH1 0 -128
BITMAP 
FFFFFF
FFFFFF
FFFFFF
FFFFFF
000000
000000
000000
000000
000000
000000
FFFFFF
FFFFFF
FFFFFF
FFFFFF
ENDCHAR
STARTCHAR question
ENCODING 63
SWIDTH 266 0
DWIDTH 33 0
BBX 30 91 0 30
VVECTOR 14 128
SWIDTH1 0 -1032
DWIDTH1 0 -128
BITMAP 
000FF000
003FFC00
00FFFE00
01FFFF00
03E0FF80
07C07FC0
0F803FC0
1F001FE0
1F001FE0
3E000FF0
3E000FF0
7C0007F8
7C0007F8
7C0007F8
7C0007F8
FC0003FC
FE0003FC
FE0003FC
FE0003FC
FE0003FC
FE0003FC
FE0003FC
7C0003FC
7C0003FC
380003FC
000003FC
000003FC
000003FC
000007FC
000007F8
000007F8
000007F8
00000FF8
00000FF0
00001FF0
00001FE0
00003FE0
00003FC0
00007FC0
00007F80
0000FF00
0000FE00
0001FE00
0001FC00
0003F800
0003F000
0007E000
0007C000
00078000
000F8000
000F8000
000F0000
001F0000
001F0000
001F0000
003F0000
003F0000
003F0000
003F8000
007F8000
007F8000
007FC000
007FC000
007FC000
003FC000
003FC000
003F8000
001F8000
000F0000
00000000
00000000
00000000
00000000
00000000
00000000
00000000
00000000
000E0000
001F0000
003F8000
003F8000
007FC000
007FC000
007FC000
007FC000
007FC000
007FC000
003F8000
003F8000
001F0000
000E0000
ENDCHAR
STARTCHAR at
ENCODING 64
SWIDTH 298 0
DWIDTH 37 0
BBX 35 59 0 35
VVECTOR 17 128
SWIDTH1 0 -1032
DWIDTH1 0 -128
BITMAP 
0003FE0000
001FFF8000
007FFFE000
00FFFFF000
01F800F800
01E0007C00
03C0003C00
0780001E00
0F80000E00
0F00000700
0E00000700
0E00000300
1E00000380
1C00000380
1C00000180
3801FF01C0
3807FF01C0
381FFF01C0
303FFF00E0
703C0700E0
70780700E0
70700700E0
70700700E0
70E00700E0
E0E00700E0
E0E00700E0
E0E00700E0
E0E00700E0
E0E00700E0
E0E00700E0
E0E00700E0
E0E00700E0
E0E00700E0
E0E00700E0
E0E00700C0
E0700700C0
F0700701C0
F0780F01C0
F07C1F8380
703E3FC380
703FFDFF00
701FF9FF00
781FF87E00
7807E03C00
3800000000
3800000000
3C00000000
1C00000100
1E00000E00
0E00001E00
0F00003C00
0780007800
03C000F000
01E003E000
00FC1FC000
007FFF8000
003FFF0000
001FFC0000
0003E00000
ENDCHAR
STARTCHAR A
ENCODING 65
SWIDTH 460 0
DWIDTH 57 0
BBX 55 91 0 30
VVECTOR 27 128
SWIDTH1 0 -1032
DWIDTH1 0 -128
BITMAP 
00000010000000
00000010000000
00000038000000
00000038000000
00000038000000
00000038000000
0000007C000000
0000007C000000
0000007C000000
0000007C000000
000000FE000000
000000FE000000
000000FE000000
000000FE000000
000001FF000000
000001FF000000
000001FF000000
000001FF000000
000003FF800000
000003FF800000
000003FF800000
000007FF800000
000007FFC00000
000007FFC00000
000007FFC00000
00000F7FC00000
00000E7FE00000
00000E7FE00000
00000E3FE00000
00001E3FF00000
00001C3FF00000
00001C3FF00000
00001C1FF00000
00003C1FF80000
0000381FF80000
0000381FF80000
0000380FF80000
0000780FFC0000
0000700FFC0000
0000700FFC0000
00007007FC0000
0000F007FE0000
0000E007FE0000
0000E007FE0000
0000E003FF0000
0001E003FF0000
0001C003FF0000
0001C003FF0000
0001C001FF8000
00038001FF8000
00038001FF8000
00038000FF8000
00038000FFC000
00070000FFC000
00070000FFC000
000700007FC000
000F00007FE000
000E00007FE000
000E00007FE000
000FFFFFFFE000
001FFFFFFFF000
001FFFFFFFF000
001FFFFFFFF000
001C00001FF000
003C00001FF800
003800001FF800
003800001FF800
003800000FFC00
007800000FFC00
007000000FFC00
007000000FFC00
0070000007FE00
00F0000007FE00
00E0000007FE00
00E0000007FE00
01E0000003FF00
01E0000003FF00
01C0000003FF00
01C0000003FF00
03C0000001FF80
0380000001FF80
0380000001FF80
0380000001FF80
0780000000FFC0
0700000000FFC0
0700000000FFC0
0F00000000FFE0
FFF000000FFFFE
FFF000000FFFFE
FFF000000FFFFE
FFF000000FFFFE
ENDCHAR
STARTCHAR B
ENCODING 66
SWIDTH 363 0
DWIDTH 45 0
BBX 43 91 0 30
VVECTOR 21 128
SWIDTH1 0 -1032
DWIDTH1 0 -128
BITMAP 
FFFFFFF00000
FFFFFFFE0000
FFFFFFFF8000
FFFFFFFFC000
0FF801FFE000
0FF8003FF000
0FF8000FF800
0FF80007F800
0FF80007FC00
0FF80003FC00
0FF80001FE00
0FF80001FE00
0FF80000FE00
0FF80000FF00
0FF80000FF00
0FF800007F00
0FF800007F80
0FF800007F80
0FF800007F80
0FF800007F80
0FF800007F80
0FF800007F80
0FF800007F80
0FF800007F80
0FF800007F80
0FF800007F00
0FF80000FF00
0FF80000FF00
0FF80000FE00
0FF80001FE00
0FF80001FE00
0FF80003FC00
0FF80007FC00
0FF80007F800
0FF8000FF800
0FF8003FF000
0FF801FFE000
0FFFFFFFC000
0FFFFFFF8000
0FFFFFFF8000
0FFFFFFF8000
0FF800FFC000
0FF8003FE000
0FF8001FF000
0FF8000FF800
0FF80007FC00
0FF80003FE00
0FF80001FE00
0FF80000FF00
0FF80000FF00
0FF800007F80
0FF800007F80
0FF800007FC0
0FF800003FC0
0FF800003FC0
0FF800003FC0
0FF800003FE0
0FF800001FE0
0FF800001FE0
0FF800001FE0
0FF800001FE0
0FF800001FE0
0FF800001FE0
0FF800001FE0
0FF800001FE0
0FF800001FE0
0FF800001FE0
0FF800001FE0
0FF800001FE0
0FF800001FE0
0FF800001FE0
0FF800003FE0
0FF800003FC0
0FF800003FC0
0FF800003FC0
0FF800007FC0
0FF800007F80
0FF800007F80
0FF80000FF80
0FF80000FF00
0FF80001FF00
0FF80003FE00
0FF80007FE00
0FF8000FFC00
0FF8001FF800
0FF8003FF000
0FF800FFE000
FFFFFFFFC000
FFFFFFFF0000
FFFFFFFC0000
FFFFFFE00000
ENDCHAR
STARTCHAR C
ENCODING 67
SWIDTH 323 0
DWIDTH 40 0
BBX 38 91 0 30
VVECTOR 19 128
SWIDTH1 0 -1032
DWIDTH1 0 -128
BITMAP 
00003FC078
0000FFF078
0003FFF878
0007FFFC78
000FF07E78
001FC01F78
003F800FF8
003F0007F8
007E0007F8
00FE0003F8
00FC0003F8
01FC0001F8
01FC0001F8
03F80001F8
03F80000F8
07F00000F8
07F00000F8
0FF00000F8
0FF0000000
0FE0000000
1FE0000000
1FE0000000
1FE0000000
3FE0000000
3FC0000000
3FC0000000
3FC0000000
7FC0000000
7FC0000000
7F80000000
7F80000000
7F80000000
7F80000000
FF80000000
FF80000000
FF80000000
FF80000000
FF80000000
FF80000000
FF80000000
FF80000000
FF80000000
FF80000000
FF80000000
FF80000000
FF80000000
FF80000000
FF80000000
FF80000000
FF80000000
FF80000000
FF80000000
FF80000000
FF80000000
FF80000000
FF80000000
FF80000000
FF80000000
7FC0000000
7FC0000000
7FC0000000
7FC0000000
7FC0000000
7FC0000000
3FE0000000
3FE0000000
3FE0000000
3FE0000000
1FF0000008
1FF000000C
1FF0000008
0FF8000018
0FF8000018
0FF8000010
07FC000030
07FC000030
03FC000060
03FE000060
01FE0000C0
01FF0000C0
00FF800180
00FF800180
007FC00300
003FE00700
003FF01E00
001FFC3E00
000FFFFC00
0007FFF800
0003FFF000
0000FFC000
00003F8000
ENDCHAR
STARTCHAR D
ENCODING 68
SWIDTH 363 0
DWIDTH 45 0
BBX 43 91 0 30
VVECTOR 21 128
SWIDTH1 0 -1032
DWIDTH1 0 -128
BITMAP 
FFFFFF000000
FFFFFFC00000
FFFFFFF00000
FFFFFFFC0000
0FF80FFE0000
0FF803FF0000
0FF800FF8000
0FF8007FC000
0FF8003FC000
0FF8001FE000
0FF8000FF000
0FF8000FF000
0FF80007F800
0FF80007F800
0FF80007FC00
0FF80003FC00
0FF80003FE00
0FF80001FE00
0FF80001FE00
0FF80001FF00
0FF80000FF00
0FF80000FF00
0FF80000FF80
0FF80000FF80
0FF80000FF80
0FF800007F80
0FF800007FC0
0FF800007FC0
0FF800007FC0
0FF800007FC0
0FF800007FC0
0FF800003FE0
0FF800003FE0
0FF800003FE0
0FF800003FE0
0FF800003FE0
0FF800003FE0
0FF800003FE0
0FF800003FE0
0FF800003FE0
0FF800003FE0
0FF800003FE0
0FF800003FE0
0FF800003FE0
0FF800003FE0
0FF800003FE0
0FF800003FE0
0FF800003FE0
0FF800003FE0
0FF800003FE0
0FF800003FE0
0FF800003FE0
0FF800003FE0
0FF800003FE0
0FF800003FE0
0FF800003FE0
0FF800003FE0
0FF800003FE0
0FF800003FE0
0FF800003FE0
0FF800007FC0
0FF800007FC0
0FF800007FC0
0FF800007FC0
0FF800007FC0
0FF800007F80
0FF80000FF80
0FF80000FF80
0FF80000FF80
0FF80000FF00
0FF80000FF00
0FF80001FF00
0FF80001FE00
0FF80001FE00
0FF80003FE00
0FF80003FC00
0FF80007FC00
0FF80007F800
0FF80007F800
0FF8000FF000
0FF8000FF000
0FF8001FE000
0FF8003FC000
0FF8007FC000
0FF800FF8000
0FF803FF0000
0FF80FFE0000
FFFFFFFC0000
FFFFFFF00000
FFFFFFC00000
FFFFFF000000
ENDCHAR
STARTCHAR E
ENCODING 69
SWIDTH 355 0
DWIDTH 44 0
BBX 42 91 0 30
VVECTOR 21 128
SWIDTH1 0 -1032
DWIDTH1 0 -128
BITMAP 
FFFFFFFFFFC0
FFFFFFFFFFC0
FFFFFFFFFFC0
FFFFFFFFFFC0
0FF800007FC0
0FF800001FC0
0FF800001FC0
0FF800000FC0
0FF8000007C0
0FF8000007C0
0FF8000007C0
0FF8000003C0
0FF8000003C0
0FF8000003C0
0FF8000003C0
0FF8000003C0
0FF8000003C0
0FF8000003C0
0FF800000000
0FF800000000
0FF800000000
0FF800000000
0FF800000000
0FF800000000
0FF800000000
0FF800000000
0FF800000000
0FF800000000
0FF800000000
0FF800000000
0FF8001E0000
0FF8001E0000
0FF8001E0000
0FF8001E0000
0FF8003E0000
0FF8003E0000
0FF8007E0000
0FFFFFFE0000
0FFFFFFE0000
0FFFFFFE0000
0FFFFFFE0000
0FF8007E0000
0FF8003E0000
0FF8003E0000
0FF8001E0000
0FF8001E0000
0FF8001E0000
0FF8001E0000
0FF800000000
0FF800000000
0FF800000000
0FF800000000
0FF800000000
0FF800000000
0FF800000000
0FF800000000
0FF800000000
0FF800000000
0FF800000000
0FF800000000
0FF800000000
0FF800000000
0FF800000000
0FF800000000
0FF800000000
0FF800000000
0FF800000000
0FF800000000
0FF800000000
0FF800000000
0FF800000000
0FF800000000
0FF800000000
0FF8000003C0
0FF8000003C0
0FF8000003C0
0FF8000003C0
0FF8000003C0
0FF8000003C0
0FF8000003C0
0FF8000007C0
0FF8000007C0
0FF8000007C0
0FF800000FC0
0FF800001FC0
0FF800001FC0
0FF800007FC0
FFFFFFFFFFC0
FFFFFFFFFFC0
FFFFFFFFFFC0
FFFFFFFFFFC0
ENDCHAR
STARTCHAR F
ENCODING 70
SWIDTH 355 0
DWIDTH 44 0
BBX 42 91 0 30
VVECTOR 21 128
SWIDTH1 0 -1032
DWIDTH1 0 -128
BITMAP 
FFFFFFFFFFC0
FFFFFFFFFFC0
FFFFFFFFFFC0
FFFFFFFFFFC0
0FF800007FC0
0FF800001FC0
0FF800001FC0
0FF800000FC0
0FF8000007C0
0FF8000007C0
0FF8000007C0
0FF8000003C0
0FF8000003C0
0FF8000003C0
0FF8000003C0
0FF8000003C0
0FF8000003C0
0FF8000003C0
0FF800000000
0FF800000000
0FF800000000
0FF800000000
0FF800000000
0FF800000000
0FF800000000
0FF800000000
0FF800000000
0FF800000000
0FF800000000
0FF800000000
0FF8001E0000
0FF8001E0000
0FF8001E0000
0FF8001E0000
0FF8003E0000
0FF8003E0000
0FF8007E0000
0FFFFFFE0000
0FFFFFFE0000
0FFFFFFE0000
0FFFFFFE0000
0FF8007E0000
0FF8003E0000
0FF8003E0000
0FF8001E0000
0FF8001E0000
0FF8001E0000
0FF8001E0000
0FF800000000
0FF800000000
0FF800000000
0FF800000000
0FF800000000
0FF800000000
0FF800000000
0FF800000000
0FF800000000
0FF800000000
0FF800000000
0FF800000000
0FF800000000
0FF800000000
0FF800000000
0FF800000000
0FF800000000
0FF800000000
0FF800000000
0FF800000000
0FF800000000
0FF800000000
0FF800000000
0FF800000000
0FF800000000
0FF800000000
0FF800000000
0FF800000000
0FF800000000
0FF800000000
0FF800000000
0FF800000000
0FF800000000
0FF800000000
0FF800000000
0FF800000000
0FF800000000
0FF800000000
0FF800000000
FFFF80000000
FFFF80000000
FFFF80000000
FFFF80000000
ENDCHAR
STARTCHAR G
ENCODING 71
SWIDTH 347 0
DWIDTH 43 0
BBX 41 91 0 30
VVECTOR 20 128
SWIDTH1 0 -1032
DWIDTH1 0 -128
BITMAP 
00003FC07800
0000FFF07800
0003FFF87800
0007FFFC7800
000FF07E7800
001FC01F7800
003F800FF800
003F0007F800
007E0007F800
00FE0003F800
00FC0003F800
01FC0001F800
01FC0001F800
03F80001F800
03F80000F800
07F00000F800
07F00000F800
0FF00000F800
0FF000000000
0FE000000000
1FE000000000
1FE000000000
1FE000000000
3FE000000000
3FC000000000
3FC000000000
3FC000000000
7FC000000000
7FC000000000
7F8000000000
7F8000000000
7F8000000000
7F8000000000
FF8000000000
FF8000000000
FF8000000000
FF8000000000
FF8000000000
FF8000000000
FF8000000000
FF8000000000
FF8000000000
FF80007FFF80
FF80007FFF80
FF80007FFF80
FF80007FFF80
FF800000FF80
FF800000FF80
FF800000FF80
FF800000FF80
FF800000FF80
FF800000FF80
FF800000FF80
FF800000FF80
FF800000FF80
FF800000FF80
FF800000FF80
FF800000FF80
7FC00000FF80
7FC00000FF80
7FC00000FF00
7FC00000FF00
7FC00000FF00
7FC00000FF00
3FE00000FF00
3FE00000FF00
3FE00000FF00
3FE00000FF00
1FF00000FF00
1FF00000FE00
1FF00000FE00
0FF80000FE00
0FF80001FE00
0FF80001FC00
07FC0001FC00
07FC0001FC00
03FC0001FC00
03FE0003F800
01FE0003F800
01FF0003F800
00FF8007F000
00FF8007F000
007FC00FE000
003FE00FC000
003FF01FC000
001FFC3F8000
000FFFFF0000
0007FFFE0000
0003FFFC0000
0000FFF00000
00003FC00000
ENDCHAR
STARTCHAR H
ENCODING 72
SWIDTH 387 0
DWIDTH 48 0
BBX 46 91 0 30
VVECTOR 23 128
SWIDTH1 0 -1032
DWIDTH1 0 -128
BITMAP 
FFFF8007FFFC
FFFF8007FFFC
FFFF8007FFFC
FFFF8007FFFC
0FF800007FC0
0FF800007FC0
0FF800007FC0
0FF800007FC0
0FF800007FC0
0FF800007FC0
0FF800007FC0
0FF800007FC0
0FF800007FC0
0FF800007FC0
0FF800007FC0
0FF800007FC0
0FF800007FC0
0FF800007FC0
0FF800007FC0
0FF800007FC0
0FF800007FC0
0FF800007FC0
0FF800007FC0
0FF800007FC0
0FF800007FC0
0FF800007FC0
0FF800007FC0
0FF800007FC0
0FF800007FC0
0FF800007FC0
0FF800007FC0
0FF800007FC0
0FF800007FC0
0FF800007FC0
0FF800007FC0
0FF800007FC0
0FF800007FC0
0FFFFFFFFFC0
0FFFFFFFFFC0
0FFFFFFFFFC0
0FFFFFFFFFC0
0FF800007FC0
0FF800007FC0
0FF800007FC0
0FF800007FC0
0FF800007FC0
0FF800007FC0
0FF800007FC0
0FF800007FC0
0FF800007FC0
0FF800007FC0
0FF800007FC0
0FF800007FC0
0FF800007FC0
0FF800007FC0
0FF800007FC0
0FF800007FC0
0FF800007FC0
0FF800007FC0
0FF800007FC0
0FF800007FC0
0FF800007FC0
0FF800007FC0
0FF800007FC0
0FF800007FC0
0FF800007FC0
0FF800007FC0
0FF800007FC0
0FF800007FC0
0FF800007FC0
0FF800007FC0
0FF800007FC0
0FF800007FC0
0FF800007FC0
0FF800007FC0
0FF800007FC0
0FF800007FC0
0FF800007FC0
0FF800007FC0
0FF800007FC0
0FF800007FC0
0FF800007FC0
0FF800007FC0
0FF800007FC0
0FF800007FC0
0FF800007FC0
0FF800007FC0
FFFF8007FFFC
FFFF8007FFFC
FFFF8007FFFC
FFFF8007FFFC
ENDCHAR
STARTCHAR I
ENCODING 73
SWIDTH 153 0
DWIDTH 19 0
BBX 17 91 0 30
VVECTOR 8 128
SWIDTH1 0 -1032
DWIDTH1 0 -128
BITMAP 
FFFF80
FFFF80
FFFF80
FFFF80
0FF800
0FF800
0FF800
0FF800
0FF800
0FF800
0FF800
0FF800
0FF800
0FF800
0FF800
0FF800
0FF800
0FF800
0FF800
0FF800
0FF800
0FF800
0FF800
0FF800
0FF800
0FF800
0FF800
0FF800
0FF800
0FF800
0FF800
0FF800
0FF800
0FF800
0FF800
0FF800
0FF800
0FF800
0FF800
0FF800
0FF800
0FF800
0FF800
0FF800
0FF800
0FF800
0FF800
0FF800
0FF800
0FF800
0FF800
0FF800
0FF800
0FF800
0FF800
0FF800
0FF800
0FF800
0FF800
0FF800
0FF800
0FF800
0FF800
0FF800
0FF800
0FF800
0FF800
0FF800
0FF800
0FF800
0FF800
0FF800
0FF800
0FF800
0FF800
0FF800
0FF800
0FF800
0FF800
0FF800
0FF800
0FF800
0FF800
0FF800
0FF800
0FF800
0FF800
FFFF80
FFFF80
FFFF80
FFFF80
ENDCHAR
STARTCHAR J
ENCODING 74
SWIDTH 298 0
DWIDTH 37 0
BBX 35 91 0 30
VVECTOR 17 128
SWIDTH1 0 -1032
DWIDTH1 0 -128
BITMAP 
00003FFFE0
00003FFFE0
00003FFFE0
00003FFFE0
000003FE00
000003FE00
000003FE00
000003FE00
000003FE00
000003FE00
000003FE00
000003FE00
000003FE00
000003FE00
000003FE00
000003FE00
000003FE00
000003FE00
000003FE00
000003FE00
000003FE00
000003FE00
000003FE00
000003FE00
000003FE00
000003FE00
000003FE00
000003FE00
000003FE00
000003FE00
000003FE00
000003FE00
000003FE00
000003FE00
000003FE00
000003FE00
000003FE00
000003FE00
000003FE00
000003FE00
000003FE00
000003FE00
000003FE00
000003FE00
000003FE00
000003FE00
000003FE00
000003FE00
000003FE00
000003FE00
000003FE00
000003FE00
000003FE00
000003FE00
000003FE00
000003FE00
000003FE00
000003FE00
000003FE00
000003FE00
000003FE00
000003FE00
000003FE00
000003FE00
000003FE00
0E0003FE00
1F0003FE00
3F8003FE00
7FC003FE00
7FC003FE00
FFE003FE00
FFE003FC00
FFE003FC00
FFE003FC00
FFE003FC00
FFE003FC00
FFE003F800
7FC007F800
7FC007F800
7F8007F000
7F000FF000
3F000FE000
3F001FE000
3F001FC000
1F803F8000
1FC07F0000
0FE1FE0000
07FFFC0000
03FFF80000
00FFF00000
003F800000
ENDCHAR
STARTCHAR K
ENCODING 75
SWIDTH 363 0
DWIDTH 45 0
BBX 43 91 0 30
VVECTOR 21 128
SWIDTH1 0 -1032
DWIDTH1 0 -128
BITMAP 
FFFF800FFF80
FFFF800FFF80
FFFF800FFF80
FFFF800FFF80
0FF80000F800
0FF80000F000
0FF80001E000
0FF80001E000
0FF80003C000
0FF80003C000
0FF800078000
0FF8000F0000
0FF8000F0000
0FF8001E0000
0FF8001E0000
0FF8003C0000
0FF800780000
0FF800780000
0FF800F00000
0FF800F00000
0FF801E00000
0FF803C00000
0FF803C00000
0FF807800000
0FF807800000
0FF80F000000
0FF80E000000
0FF81E000000
0FF83C000000
0FF83C000000
0FF878000000
0FF8F8000000
0FF8F0000000
0FF9F0000000
0FF9F0000000
0FFBF0000000
0FFBF8000000
0FFFF8000000
0FFFF8000000
0FFFFC000000
0FFFFC000000
0FFFFC000000
0FFFFE000000
0FFFFE000000
0FFFFE000000
0FFBFF000000
0FFBFF000000
0FFBFF800000
0FF9FF800000
0FF9FF800000
0FF9FFC00000
0FF8FFC00000
0FF8FFE00000
0FF8FFE00000
0FF87FE00000
0FF87FF00000
0FF83FF00000
0FF83FF00000
0FF83FF80000
0FF81FF80000
0FF81FF80000
0FF81FFC0000
0FF80FFC0000
0FF80FFC0000
0FF80FFE0000
0FF807FE0000
0FF807FF0000
0FF807FF0000
0FF803FF0000
0FF803FF8000
0FF803FF8000
0FF801FF8000
0FF801FFC000
0FF801FFC000
0FF800FFC000
0FF800FFE000
0FF8007FE000
0FF8007FE000
0FF8007FF000
0FF8003FF000
0FF8003FF800
0FF8003FF800
0FF8001FF800
0FF8001FFC00
0FF8001FFC00
0FF8000FFC00
0FF8000FFE00
FFFF80FFFFE0
FFFF80FFFFE0
FFFF80FFFFE0
FFFF80FFFFE0
ENDCHAR
STARTCHAR L
ENCODING 76
SWIDTH 355 0
DWIDTH 44 0
BBX 42 91 0 30
VVECTOR 21 128
SWIDTH1 0 -1032
DWIDTH1 0 -128
BITMAP 
FFFF80000000
FFFF80000000
FFFF80000000
FFFF80000000
0FF800000000
0FF800000000
0FF800000000
0FF800000000
0FF800000000
0FF800000000
0FF800000000
0FF800000000
0FF800000000
0FF800000000
0FF800000000
0FF800000000
0FF800000000
0FF800000000
0FF800000000
0FF800000000
0FF800000000
0FF800000000
0FF800000000
0FF800000000
0FF800000000
0FF800000000
0FF800000000
0FF800000000
0FF800000000
0FF800000000
0FF800000000
0FF800000000
0FF800000000
0FF800000000
0FF800000000
0FF800000000
0FF800000000
0FF800000000
0FF800000000
0FF800000000
0FF800000000
0FF800000000
0FF800000000
0FF800000000
0FF800000000
0FF800000000
0FF800000000
0FF800000000
0FF800000000
0FF800000000
0FF800000000
0FF800000000
0FF800000000
0FF800000000
0FF800000000
0FF800000000
0FF800000000
0FF800000000
0FF800000000
0FF800000000
0FF800000000
0FF800000000
0FF800000000
0FF800000000
0FF800000000
0FF800000000
0FF800000000
0FF800000000
0FF800000000
0FF800000000
0FF800000000
0FF800000000
0FF800000000
0FF8000003C0
0FF8000003C0
0FF8000003C0
0FF8000003C0
0FF8000003C0
0FF8000003C0
0FF8000003C0
0FF8000007C0
0FF8000007C0
0FF8000007C0
0FF800000FC0
0FF800001FC0
0FF800001FC0
0FF800007FC0
FFFFFFFFFFC0
FFFFFFFFFFC0
FFFFFFFFFFC0
FFFFFFFFFFC0
ENDCHAR
STARTCHAR M
ENCODING 77
SWIDTH 411 0
DWIDTH 51 0
BBX 49 91 0 30
VVECTOR 24 128
SWIDTH1 0 -1032
DWIDTH1 0 -128
BITMAP 
FFFC00001FFF80
FFFC00001FFF80
FFFE00001FFF80
FFFE00003FFF80
0FFE00003FF800
0FFE00003FF800
0FFE00003FF800
0FFF00003FF800
0FFF00003FF800
0FFF00007FF800
0FFF00007FF800
0FFF00007FF800
0FFF80007FF800
0FFF80007FF800
0FFF80007FF800
0FFF8000EFF800
0FFF8000EFF800
0FFFC000EFF800
0F7FC000EFF800
0F7FC000EFF800
0F7FC001EFF800
0F7FC001CFF800
0F7FC001CFF800
0F7FE001CFF800
0F3FE001CFF800
0F3FE001CFF800
0F3FE003CFF800
0F3FE0038FF800
0F3FF0038FF800
0F1FF0038FF800
0F1FF0038FF800
0F1FF0038FF800
0F1FF0078FF800
0F1FF0070FF800
0F0FF8070FF800
0F0FF8070FF800
0F0FF8070FF800
0F0FF8070FF800
0F0FF80F0FF800
0F0FFC0E0FF800
0F07FC0E0FF800
0F07FC0E0FF800
0F07FC0E0FF800
0F07FC0E0FF800
0F07FE1E0FF800
0F03FE1C0FF800
0F03FE1C0FF800
0F03FE1C0FF800
0F03FE1C0FF800
0F03FE1C0FF800
0F03FF3C0FF800
0F01FF380FF800
0F01FF380FF800
0F01FF380FF800
0F01FF380FF800
0F01FFB80FF800
0F00FFF80FF800
0F00FFF00FF800
0F00FFF00FF800
0F00FFF00FF800
0F00FFF00FF800
0F007FF00FF800
0F007FF00FF800
0F007FE00FF800
0F007FE00FF800
0F007FE00FF800
0F003FE00FF800
0F003FE00FF800
0F003FE00FF800
0F003FC00FF800
0F003FC00FF800
0F001FC00FF800
0F001FC00FF800
0F001FC00FF800
0F001FC00FF800
0F001F800FF800
0F001F800FF800
0F000F800FF800
0F000F800FF800
0F000F800FF800
0F000F800FF800
0F000F000FF800
0F0007000FF800
0F0007000FF800
0F0007000FF800
0F0007000FF800
0F0007000FF800
FFF00600FFFF80
FFF00200FFFF80
FFF00200FFFF80
FFF00200FFFF80
ENDCHAR
STARTCHAR N
ENCODING 78
SWIDTH 371 0
DWIDTH 46 0
BBX 44 91 0 30
VVECTOR 22 128
SWIDTH1 0 -1032
DWIDTH1 0 -128
BITMAP 
FFFC0000FFF0
FFFC0000FFF0
FFFE0000FFF0
FFFE0000FFF0
0FFF00000F00
0FFF00000F00
0FFF00000F00
0FFF80000F00
0FFF80000F00
0FFF80000F00
0FFFC0000F00
0FFFC0000F00
0FFFC0000F00
0FFFE0000F00
0F7FE0000F00
0F7FE0000F00
0F7FF0000F00
0F3FF0000F00
0F3FF8000F00
0F3FF8000F00
0F1FF8000F00
0F1FFC000F00
0F0FFC000F00
0F0FFC000F00
0F0FFE000F00
0F07FE000F00
0F07FE000F00
0F07FF000F00
0F03FF000F00
0F03FF000F00
0F01FF800F00
0F01FF800F00
0F01FFC00F00
0F00FFC00F00
0F00FFC00F00
0F00FFE00F00
0F007FE00F00
0F007FE00F00
0F007FF00F00
0F003FF00F00
0F003FF00F00
0F003FF80F00
0F001FF80F00
0F001FF80F00
0F001FFC0F00
0F000FFC0F00
0F000FFE0F00
0F0007FE0F00
0F0007FE0F00
0F0007FF0F00
0F0003FF0F00
0F0003FF0F00
0F0003FF8F00
0F0001FF8F00
0F0001FF8F00
0F0001FFCF00
0F0000FFCF00
0F0000FFEF00
0F0000FFEF00
0F00007FEF00
0F00007FFF00
0F00003FFF00
0F00003FFF00
0F00003FFF00
0F00001FFF00
0F00001FFF00
0F00001FFF00
0F00000FFF00
0F00000FFF00
0F00000FFF00
0F000007FF00
0F000007FF00
0F000003FF00
0F000003FF00
0F000003FF00
0F000001FF00
0F000001FF00
0F000001FF00
0F000000FF00
0F000000FF00
0F000000FF00
0F0000007F00
0F0000007F00
0F0000007F00
0F0000003F00
0F0000003F00
0F0000001F00
FFF000001F00
FFF000001F00
FFF000000F00
FFF000000F00
ENDCHAR
STARTCHAR O
ENCODING 79
SWIDTH 371 0
DWIDTH 46 0
BBX 44 91 0 30
VVECTOR 22 128
SWIDTH1 0 -1032
DWIDTH1 0 -128
BITMAP 
00003FC00000
0000FFF00000
0003FFFC0000
0007FFFE0000
000FF0FF0000
001FC03F8000
003F801FC000
003F000FC000
007E0007E000
00FE0007F000
00FC0003F000
01FC0003F800
01FC0003F800
03F80001FC00
03F80001FC00
07F00000FE00
07F00000FE00
0FF00000FF00
0FF00000FF00
0FE000007F00
1FE000007F80
1FE000007F80
1FE000007F80
3FE000007FC0
3FC000003FC0
3FC000003FC0
3FC000003FC0
7FC000003FE0
7FC000003FE0
7F8000001FE0
7F8000001FE0
7F8000001FE0
7F8000001FE0
FF8000001FF0
FF8000001FF0
FF8000001FF0
FF8000001FF0
FF8000001FF0
FF8000001FF0
FF8000001FF0
FF8000001FF0
FF8000001FF0
FF8000001FF0
FF8000001FF0
FF8000001FF0
FF8000001FF0
FF8000001FF0
FF8000001FF0
FF8000001FF0
FF8000001FF0
FF8000001FF0
FF8000001FF0
FF8000001FF0
FF8000001FF0
FF8000001FF0
FF8000001FF0
FF8000001FF0
FF8000001FF0
7F8000001FE0
7F8000001FE0
7F8000001FE0
7F8000001FE0
7FC000003FE0
7FC000003FE0
3FC000003FC0
3FC000003FC0
3FC000003FC0
3FE000007FC0
1FE000007F80
1FE000007F80
1FE000007F80
0FE000007F00
0FF00000FF00
0FF00000FF00
07F00000FE00
07F00000FE00
03F80001FC00
03F80001FC00
01FC0003F800
01FC0003F800
00FC0003F000
00FE0007F000
007E0007E000
003F000FC000
003F801FC000
001FC03F8000
000FF0FF0000
0007FFFE0000
0003FFFC0000
0000FFF00000
00003FC00000
ENDCHAR
STARTCHAR P
ENCODING 80
SWIDTH 347 0
DWIDTH 43 0
BBX 41 91 0 30
VVECTOR 20 128
SWIDTH1 0 -1032
DWIDTH1 0 -128
BITMAP 
FFFFFFF00000
FFFFFFFE0000
FFFFFFFF8000
FFFFFFFFC000
0FF801FFE000
0FF8003FF000
0FF8000FF800
0FF80007F800
0FF80007FC00
0FF80003FC00
0FF80001FE00
0FF80001FE00
0FF80000FE00
0FF80000FF00
0FF80000FF00
0FF800007F00
0FF800007F80
0FF800007F80
0FF800007F80
0FF800007F80
0FF800007F80
0FF800007F80
0FF800007F80
0FF800007F80
0FF800007F80
0FF800007F00
0FF80000FF00
0FF80000FF00
0FF80000FE00
0FF80001FE00
0FF80001FE00
0FF80003FC00
0FF80007FC00
0FF80007F800
0FF8000FF800
0FF8003FF000
0FF801FFE000
0FFFFFFFC000
0FFFFFFF8000
0FFFFFFE0000
0FFFFFF00000
0FF800000000
0FF800000000
0FF800000000
0FF800000000
0FF800000000
0FF800000000
0FF800000000
0FF800000000
0FF800000000
0FF800000000
0FF800000000
0FF800000000
0FF800000000
0FF800000000
0FF800000000
0FF800000000
0FF800000000
0FF800000000
0FF800000000
0FF800000000
0FF800000000
0FF800000000
0FF800000000
0FF800000000
0FF800000000
0FF800000000
0FF800000000
0FF800000000
0FF800000000
0FF800000000
0FF800000000
0FF800000000
0FF800000000
0FF800000000
0FF800000000
0FF800000000
0FF800000000
0FF800000000
0FF800000000
0FF800000000
0FF800000000
0FF800000000
0FF800000000
0FF800000000
0FF800000000
0FF800000000
FFFF80000000
FFFF80000000
FFFF80000000
FFFF80000000
ENDCHAR
STARTCHAR Q
ENCODING 81
SWIDTH 371 0
DWIDTH 46 0
BBX 44 91 0 30
VVECTOR 22 128
SWIDTH1 0 -1032
DWIDTH1 0 -128
BITMAP 
00003FC00000
0000FFF00000
0003FFFC0000
0007FFFE0000
000FF0FF0000
001FC03F8000
003F801FC000
003F000FC000
007E0007E000
00FE0007F000
00FC0003F000
01FC0003F800
01FC0003F800
03F80001FC00
03F80001FC00
07F00000FE00
07F00000FE00
0FF00000FF00
0FF00000FF00
0FE000007F00
1FE000007F80
1FE000007F80
1FE000007F80
3FE000007FC0
3FC000003FC0
3FC000003FC0
3FC000003FC0
7FC000003FE0
7FC000003FE0
7F8000001FE0
7F8000001FE0
7F8000001FE0
7F8000001FE0
FF8000001FF0
FF8000001FF0
FF8000001FF0
FF8000001FF0
FF8000001FF0
FF8000001FF0
FF8000001FF0
FF8000001FF0
FF8000001FF0
FF8000001FF0
FF8000001FF0
FF8000001FF0
FF8000001FF0
FF8000001FF0
FF8000001FF0
FF8000001FF0
FF8000001FF0
FF8000001FF0
FF8000001FF0
FF8000001FF0
FF8000001FF0
FF8000001FF0
FF8000001FF0
FF8000001FF0
FF8000001FF0
7F8000001FE0
7F8000001FE0
7F8000001FE0
7F8000001FE0
7FC000003FE0
7FC000003FE0
3FC000003FC0
3FC000003FC0
3FC000003FC0
3FE000007FC0
1FE000007F80
1FE000007F80
1FE000007F80
0FE000007F00
0FF00078FF00
0FF000FEFF00
07F001FFFE00
07F003FFFE00
03F803FFFC00
03F807FFFC00
01FC07FFF800
01FC07FFF800
00FC0CFFFC00
00FE087FFE10
007E003FFF30
003F001FFFE0
003F801FFFE0
001FC03FFFE0
000FF0FFFFC0
0007FFFFFFC0
0003FFFCFF80
0000FFF07F00
00003FC01E00
ENDCHAR
STARTCHAR R
ENCODING 82
SWIDTH 363 0
DWIDTH 45 0
BBX 43 91 0 30
VVECTOR 21 128
SWIDTH1 0 -1032
DWIDTH1 0 -128
BITMAP 
FFFFFFF00000
FFFFFFFE0000
FFFFFFFF8000
FFFFFFFFC000
0FF801FFE000
0FF8003FF000
0FF8000FF800
0FF80007F800
0FF80007FC00
0FF80003FC00
0FF80001FE00
0FF80001FE00
0FF80000FE00
0FF80000FF00
0FF80000FF00
0FF800007F00
0FF800007F80
0FF800007F80
0FF800007F80
0FF800007F80
0FF800007F80
0FF800007F80
0FF800007F80
0FF800007F80
0FF800007F80
0FF800007F00
0FF80000FF00
0FF80000FF00
0FF80000FE00
0FF80001FE00
0FF80001FE00
0FF80003FC00
0FF80007FC00
0FF80007F800
0FF8000FF800
0FF8003FF000
0FF801FFE000
0FFFFFFFC000
0FFFFFFF8000
0FFFFFFE0000
0FFFFFF00000
0FFFFE000000
0FFFFE000000
0FFFFE000000
0FFFFE000000
0FFBFF000000
0FFBFF000000
0FFBFF800000
0FF9FF800000
0FF9FF800000
0FF9FFC00000
0FF8FFC00000
0FF8FFE00000
0FF8FFE00000
0FF87FE00000
0FF87FF00000
0FF83FF00000
0FF83FF00000
0FF83FF80000
0FF81FF80000
0FF81FF80000
0FF81FFC0000
0FF80FFC0000
0FF80FFC0000
0FF80FFE0000
0FF807FE0000
0FF807FF0000
0FF807FF0000
0FF803FF0000
0FF803FF8000
0FF803FF8000
0FF801FF8000
0FF801FFC000
0FF801FFC000
0FF800FFC000
0FF800FFE000
0FF8007FE000
0FF8007FE000
0FF8007FF000
0FF8003FF000
0FF8003FF800
0FF8003FF800
0FF8001FF800
0FF8001FFC00
0FF8001FFC00
0FF8000FFC00
0FF8000FFE00
FFFF80FFFFE0
FFFF80FFFFE0
FFFF80FFFFE0
FFFF80FFFFE0
ENDCHAR
STARTCHAR S
ENCODING 83
SWIDTH 323 0
DWIDTH 40 0
BBX 38 91 0 30
VVECTOR 19 128
SWIDTH1 0 -1032
DWIDTH1 0 -128
BITMAP 
0001FE03C0
0007FF83C0
001FFFE3C0
003FFFF3C0
007E03FBC0
00F801FFC0
01F000FFC0
03E0007FC0
03C0003FC0
07C0003FC0
0780001FC0
0F80001FC0
0F00000FC0
1F00000FC0
1F000007C0
1E000007C0
1E000007C0
3E000007C0
3E00000000
3E00000000
3E00000000
3E00000000
3E00000000
3E00000000
3E00000000
3E00000000
3E00000000
3F00000000
3F00000000
3F80000000
3F80000000
3FC0000000
1FF0000000
1FFC000000
1FFFC00000
1FFFF00000
0FFFFC0000
0FFFFF0000
07FFFFC000
07FFFFE000
03FFFFF000
03FFFFF800
01FFFFFC00
00FFFFFE00
007FFFFF00
003FFFFF80
001FFFFF80
0007FFFFC0
0000FFFFC0
00003FFFE0
00000FFFE0
000003FFF0
000001FFF0
000000FFF8
0000007FF8
0000003FF8
0000003FF8
0000001FF8
0000001FFC
0000000FFC
0000000FFC
00000007FC
00000007FC
00000007FC
00000003FC
00000003FC
00000003FC
00000003FC
00000003FC
00000003FC
00000003FC
00000003FC
00000003F8
F0000003F8
F0000003F8
F0000003F0
F8000007F0
F8000007F0
FC000007E0
FC00000FE0
FE00000FC0
FE00001FC0
FF00003F80
FF80007F00
FFC000FF00
FFE001FE00
FFF807FC00
F3FFFFF800
F0FFFFF000
F03FFFC000
F007FF0000
ENDCHAR
STARTCHAR T
ENCODING 84
SWIDTH 363 0
DWIDTH 45 0
BBX 43 91 0 30
VVECTOR 21 128
SWIDTH1 0 -1032
DWIDTH1 0 -128
BITMAP 
FFFFFFFFFFE0
FFFFFFFFFFE0
FFFFFFFFFFE0
FFFFFFFFFFE0
FF807FC03FE0
FE007FC00FE0
FE007FC00FE0
FC007FC007E0
F8007FC003E0
F8007FC003E0
F8007FC003E0
F0007FC001E0
F0007FC001E0
F0007FC001E0
F0007FC001E0
F0007FC001E0
F0007FC001E0
F0007FC001E0
00007FC00000
00007FC00000
00007FC00000
00007FC00000
00007FC00000
00007FC00000
00007FC00000
00007FC00000
00007FC00000
00007FC00000
00007FC00000
00007FC00000
00007FC00000
00007FC00000
00007FC00000
00007FC00000
00007FC00000
00007FC00000
00007FC00000
00007FC00000
00007FC00000
00007FC00000
00007FC00000
00007FC00000
00007FC00000
00007FC00000
00007FC00000
00007FC00000
00007FC00000
00007FC00000
00007FC00000
00007FC00000
00007FC00000
00007FC00000
00007FC00000
00007FC00000
00007FC00000
00007FC00000
00007FC00000
00007FC00000
00007FC00000
00007FC00000
00007FC00000
00007FC00000
00007FC00000
00007FC00000
00007FC00000
00007FC00000
00007FC00000
00007FC00000
00007FC00000
00007FC00000
00007FC00000
00007FC00000
00007FC00000
00007FC00000
00007FC00000
00007FC00000
00007FC00000
00007FC00000
00007FC00000
00007FC00000
00007FC00000
00007FC00000
00007FC00000
00007FC00000
00007FC00000
00007FC00000
00007FC00000
0007FFFC0000
0007FFFC0000
0007FFFC0000
0007FFFC0000
ENDCHAR
STARTCHAR U
ENCODING 85
SWIDTH 395 0
DWIDTH 49 0
BBX 47 91 0 30
VVECTOR 23 128
SWIDTH1 0 -1032
DWIDTH1 0 -128
BITMAP 
FFFF80001FFE
FFFF80001FFE
FFFF80001FFE
FFFF80001FFE
0FF8000001E0
0FF8000001E0
0FF8000001E0
0FF8000001E0
0FF8000001E0
0FF8000001E0
0FF8000001E0
0FF8000001E0
0FF8000001E0
0FF8000001E0
0FF8000001E0
0FF8000001E0
0FF8000001E0
0FF8000001E0
0FF8000001E0
0FF8000001E0
0FF8000001E0
0FF8000001C0
0FF8000001E0
0FF8000001E0
0FF8000001E0
0FF8000001E0
0FF8000001E0
0FF8000001E0
0FF8000001E0
0FF8000001E0
0FF8000001E0
0FF8000001E0
0FF8000001E0
0FF8000001E0
0FF8000001E0
0FF8000001E0
0FF8000001E0
0FF8000001E0
0FF8000001E0
0FF8000001E0
0FF8000001E0
0FF8000001E0
0FF8000001E0
0FF8000001E0
0FF8000001E0
0FF8000001E0
0FF8000001E0
0FF8000001E0
0FF8000001E0
0FF8000001E0
0FF8000001E0
0FF8000001E0
0FF8000001E0
0FF8000001E0
0FF8000001E0
0FF8000001E0
0FF8000001E0
0FF8000001E0
0FF8000001E0
0FF8000001E0
0FF8000001E0
0FF8000001E0
0FF8000001E0
0FF8000001E0
0FF8000001E0
07F8000001C0
07F8000001C0
07FC000003C0
07FC000003C0
07FC000003C0
07FC000003C0
03FE00000780
03FE00000780
03FE00000780
03FF00000F80
01FF00000F00
01FF80001F00
00FF80001E00
00FFC0003E00
007FC0003C00
007FE0007C00
003FF000F800
003FF801F800
001FFE07F000
001FFFFFF000
000FFFFFE000
0007FFFFC000
0003FFFF8000
0001FFFF0000
00007FFC0000
00000FE00000
ENDCHAR
STARTCHAR V
ENCODING 86
SWIDTH 387 0
DWIDTH 48 0
BBX 46 91 0 30
VVECTOR 23 128
SWIDTH1 0 -1032
DWIDTH1 0 -128
BITMAP 
FFFF80001FFC
FFFF80001FFC
FFFF80001FFC
FFFF80001FFC
0FFC000003C0
0FFC000003C0
07FC000003C0
07FC00000380
07FC00000380
07FE00000380
07FE00000780
03FE00000700
03FE00000700
03FE00000700
03FF00000700
03FF00000F00
01FF00000E00
01FF00000E00
01FF80000E00
01FF80000E00
00FF80001E00
00FF80001C00
00FF80001C00
00FFC0001C00
00FFC0001C00
007FC0003C00
007FC0003800
007FC0003800
007FE0003800
003FE0007800
003FE0007800
003FE0007000
003FF0007000
003FF0007000
001FF000F000
001FF000F000
001FF800E000
001FF800E000
000FF800E000
000FF801E000
000FFC01E000
000FFC01C000
000FFC01C000
0007FC01C000
0007FC03C000
0007FE038000
0007FE038000
0003FE038000
0003FE038000
0003FF078000
0003FF070000
0001FF070000
0001FF070000
0001FF070000
0001FF8F0000
0001FF8E0000
0000FF8E0000
0000FF8E0000
0000FFCE0000
0000FFDE0000
0000FFDC0000
00007FDC0000
00007FDC0000
00007FFC0000
00007FF80000
00003FF80000
00003FF80000
00003FF80000
00003FF80000
00003FF00000
00001FF00000
00001FF00000
00001FF00000
00001FF00000
00001FE00000
00000FE00000
00000FE00000
00000FE00000
00000FE00000
000007C00000
000007C00000
000007C00000
000007C00000
000007800000
000003800000
000003800000
000003800000
000003800000
000001000000
000001000000
000001000000
ENDCHAR
STARTCHAR W
ENCODING 87
SWIDTH 516 0
DWIDTH 64 0
BBX 62 91 0 30
VVECTOR 31 128
SWIDTH1 0 -1032
DWIDTH1 0 -128
BITMAP 
FFFF800000001FFC
FFFF800000001FFC
FFFF800000001FFC
FFFF800000001FFC
0FFC0000000003C0
0FFC0000000003C0
07FC0000000003C0
07FC000000000380
07FC000000000380
07FE000000000380
07FE000000000780
03FE000000000700
03FE000000000700
03FE000000000700
03FF000000000700
03FF000000000F00
01FF000000000E00
01FF000000000E00
01FF800000000E00
01FF800000000E00
00FF800000001E00
00FF800000001C00
00FF800000001C00
00FFC00000001C00
00FFC00000001C00
007FC00000003C00
007FC00000003800
007FC00000003800
007FE00020003800
003FE00060007800
003FE00060007800
003FE00060007000
003FF00070007000
003FF00070007000
001FF000F000F000
001FF000F000F000
001FF800F800E000
001FF800F800E000
000FF800F800E000
000FF801F801E000
000FFC01FC01E000
000FFC01FC01C000
000FFC01FC01C000
0007FC01FC01C000
0007FC03FC03C000
0007FE03FE038000
0007FE03FE038000
0003FE03FE038000
0003FE03FE038000
0003FF07FF078000
0003FF07FF070000
0001FF07FF070000
0001FF07FF070000
0001FF07FF070000
0001FF8FFF8F0000
0001FF8FFF8E0000
0000FF8EFF8E0000
0000FF8EFF8E0000
0000FFCEFFCE0000
0000FFDEFFDE0000
0000FFDCFFDC0000
00007FDC7FDC0000
00007FDC7FDC0000
00007FFC7FFC0000
00007FF87FF80000
00003FF83FF80000
00003FF83FF80000
00003FF83FF80000
00003FF83FF80000
00003FF03FF00000
00001FF01FF00000
00001FF01FF00000
00001FF01FF00000
00001FF01FF00000
00001FE01FE00000
00000FE00FE00000
00000FE00FE00000
00000FE00FE00000
00000FE00FE00000
000007C007C00000
000007C007C00000
000007C007C00000
000007C007C00000
0000078007800000
0000038003800000
0000038003800000
0000038003800000
0000038003800000
0000010001000000
0000010001000000
0000010001000000
ENDCHAR
STARTCHAR X
ENCODING 88
SWIDTH 387 0
DWIDTH 48 0
BBX 46 91 0 30
VVECTOR 23 128
SWIDTH1 0 -1032
DWIDTH1 0 -128
BITMAP 
FFFFC0007FFC
FFFFC0007FFC
FFFFC0007FFC
FFFFC0007FFC
0FFC00000F00
0FFC00000E00
07FC00000E00
07FE00001E00
07FE00001C00
03FE00001C00
03FF00003800
03FF00003800
01FF00003800
01FF80007000
01FF80007000
00FF8000F000
00FFC000E000
00FFC000E000
007FC001C000
007FE001C000
007FE001C000
003FE0038000
003FF0038000
001FF0078000
001FF8070000
001FF8070000
000FF80F0000
000FFC0E0000
000FFC0E0000
0007FC1C0000
0007FE1C0000
0007FE3C0000
0003FE380000
0003FF380000
0003FF780000
0001FF700000
0001FFF00000
0001FFF00000
0000FFE00000
0000FFE00000
0000FFE00000
00007FE00000
00007FE00000
00007FE00000
00003FF00000
00003FF00000
00003FF00000
00001FF80000
00001FF80000
00001FF80000
00001FFC0000
00001FFC0000
00001FFC0000
00003FFE0000
00003FFE0000
00003BFE0000
00007BFF0000
000073FF0000
0000F1FF0000
0000E1FF8000
0000E1FF8000
0001E0FF8000
0001C0FFC000
0001C0FFC000
0003807FC000
0003807FE000
0007807FE000
0007003FE000
0007003FF000
000F003FF000
000E001FF000
001E001FF800
001C001FF800
001C000FFC00
003C000FFC00
0038000FFC00
00380007FE00
00780007FE00
00700007FE00
00700003FF00
00F00003FF00
00E00003FF00
01E00001FF80
01C00001FF80
01C00001FF80
03C00000FFC0
03C00000FFC0
FFF8000FFFFC
FFF8000FFFFC
FFF8000FFFFC
FFF8000FFFFC
ENDCHAR
STARTCHAR Y
ENCODING 89
SWIDTH 395 0
DWIDTH 49 0
BBX 47 91 0 30
VVECTOR 23 128
SWIDTH1 0 -1032
DWIDTH1 0 -128
BITMAP 
FFFFC0007FFE
FFFFC0007FFE
FFFFC0007FFE
FFFFC0007FFE
0FFC00000780
0FFC00000780
0FFC00000700
07FE00000700
07FE00000F00
07FE00000F00
03FF00000E00
03FF00000E00
03FF00001E00
01FF80001C00
01FF80001C00
01FF80001C00
00FFC0003C00
00FFC0003800
00FFC0003800
007FE0007800
007FE0007000
003FE0007000
003FF000F000
003FF000F000
003FF000E000
001FF800E000
001FF801E000
001FF801C000
000FFC01C000
000FFC03C000
000FFC03C000
0007FE038000
0007FE038000
0007FE078000
0003FF070000
0003FF070000
0003FF0F0000
0001FF8F0000
0001FF8E0000
0001FF8E0000
0000FFDE0000
0000FFDC0000
0000FFDC0000
00007FFC0000
00007FFC0000
00007FF80000
00003FF80000
00003FF80000
00003FF00000
00001FF00000
00001FF00000
00001FF00000
00001FF00000
00001FF00000
00001FF00000
00001FF00000
00001FF00000
00001FF00000
00001FF00000
00001FF00000
00001FF00000
00001FF00000
00001FF00000
00001FF00000
00001FF00000
00001FF00000
00001FF00000
00001FF00000
00001FF00000
00001FF00000
00001FF00000
00001FF00000
00001FF00000
00001FF00000
00001FF00000
00001FF00000
00001FF00000
00001FF00000
00001FF00000
00001FF00000
00001FF00000
00001FF00000
00001FF00000
00001FF00000
00001FF00000
00001FF00000
00001FF00000
0001FFFF0000
0001FFFF0000
0001FFFF0000
0001FFFF0000
ENDCHAR
STARTCHAR Z
ENCODING 90
SWIDTH 355 0
DWIDTH 44 0
BBX 42 91 0 30
VVECTOR 21 128
SWIDTH1 0 -1032
DWIDTH1 0 -128
BITMAP 
FFFFFFFFFFC0
FFFFFFFFFF80
FFFFFFFFFF80
FFFFFFFFFF80
FF800007FF00
FE000007FF00
FE000007FE00
FC000007FE00
F800000FFE00
F800000FFC00
F800000FFC00
F000001FFC00
F000001FF800
F000001FF800
F000003FF800
F000003FF000
F000003FF000
F000007FF000
0000007FE000
0000007FE000
000000FFE000
000000FFC000
000000FFC000
000001FFC000
000001FF8000
000001FF8000
000003FF8000
000003FF0000
000003FF0000
000007FF0000
000007FE0000
000007FE0000
00000FFC0000
00000FFC0000
00000FFC0000
00001FF80000
00001FF80000
00001FF80000
00003FF00000
00003FF00000
00003FF00000
00007FE00000
00007FE00000
00007FE00000
0000FFC00000
0000FFC00000
0000FFC00000
0001FF800000
0001FF800000
0001FF800000
0003FF000000
0003FF000000
0003FF000000
0007FE000000
0007FE000000
0007FE000000
000FFC000000
000FFC000000
001FFC000000
001FF8000000
001FF8000000
003FF8000000
003FF0000000
003FF0000000
007FE0000000
007FE0000000
007FE0000000
00FFC0000000
00FFC0000000
00FFC0000000
01FF80000000
01FF80000000
01FF80000000
03FF000003C0
03FF000003C0
03FF000003C0
07FE000003C0
07FE000003C0
07FE000003C0
0FFC000003C0
0FFC000007C0
0FF8000007C0
1FF8000007C0
1FF800000FC0
3FF000001FC0
3FF000001FC0
3FF000007FC0
7FFFFFFFFFC0
7FFFFFFFFFC0
7FFFFFFFFFC0
FFFFFFFFFFC0
ENDCHAR
STARTCHAR grave
ENCODING 96
SWIDTH 97 0
DWIDTH 12 0
BBX 9 24 0 95
VVECTOR 4 128
SWIDTH1 0 -1032
DWIDTH1 0 -128
BITMAP 
0800
0800
1000
1000
1000
3000
3000
3000
7800
7800
7C00
FC00
FE00
FF00
FF80
FF80
FF80
FF80
FF80
FF80
7F00
7F00
3E00
1C00
ENDCHAR
STARTCHAR a
ENCODING 97
SWIDTH 258 0
DWIDTH 32 0
BBX 30 54 0 30
VVECTOR 15 128
SWIDTH1 0 -1032
DWIDTH1 0 -128
BITMAP 
007F8000
01FFE000
03FFF000
07FFF800
07E3FC00
0FC1FE00
0F80FE00
0F807F00
1F807F00
1FC07F80
1FC03F80
1FC03F80
1FC03F80
0F803FC0
0F803FC0
07003FC0
00003FC0
00003FC0
00003FC0
00003FC0
00003FC0
00003FC0
00F83FC0
03FE3FC0
07FF3FC0
0FFFBFC0
1FFFFFC0
1FFFFFC0
3FC1FFC0
3F80FFC0
7F007FC0
7F007FC0
7E003FC0
7E003FC0
FE003FC0
FE003FC0
FE003FC0
FE003FC0
FE003FC0
FE003FC0
FE003FC0
FE003FC0
7E003FC0
7E003FC0
7F007FC0
7F007FC0
3F80FFC0
3FC1FFC0
1FFFFFE0
1FFFDFE0
0FFF9FF0
07FF0FF8
03FE07FC
00F803FC
ENDCHAR
STARTCHAR b
ENCODING 98
SWIDTH 266 0
DWIDTH 33 0
BBX 31 91 0 30
VVECTOR 15 128
SWIDTH1 0 -1032
DWIDTH1 0 -128
BITMAP 
FFC00000
FFC00000
FFC00000
FFC00000
3FC00000
3FC00000
3FC00000
3FC00000
3FC00000
3FC00000
3FC00000
3FC00000
3FC00000
3FC00000
3FC00000
3FC00000
3FC00000
3FC00000
3FC00000
3FC00000
3FC00000
3FC00000
3FC00000
3FC00000
3FC00000
3FC00000
3FC00000
3FC00000
3FC00000
3FC00000
3FC00000
3FC00000
3FC00000
3FC00000
3FC00000
3FC00000
3FC00000
3FC0F800
3FC3FE00
3FC7FF00
3FCFFF80
3FCFFFC0
3FDE1FE0
3FDC0FE0
3FF807F0
3FF007F0
3FF003F8
3FE003F8
3FE003F8
3FC001FC
3FC001FC
3FC001FC
3FC001FC
3FC001FE
3FC000FE
3FC000FE
3FC000FE
3FC000FE
3FC000FE
3FC000FE
3FC000FE
3FC000FE
3FC000FE
3FC000FE
3FC000FE
3FC000FE
3FC000FE
3FC000FE
3FC000FE
3FC000FE
3FC000FE
3FC000FE
3FC000FE
3FC000FE
3FC001FE
3FC001FC
3FC001FC
3FC001FC
3FC001FC
3FE003F8
3FE003F8
3FF003F8
3FF007F0
3FF807F0
3FDC0FE0
3FDE1FE0
3FCFFFC0
FFCFFF80
FFC7FF00
FFC3FE00
C000F800
ENDCHAR
STARTCHAR c
ENCODING 99
SWIDTH 242 0
DWIDTH 30 0
BBX 27 54 0 30
VVECTOR 13 128
SWIDTH1 0 -1032
DWIDTH1 0 -128
BITMAP 
000FC000
003FF000
00FFFC00
01FFFE00
03F83F00
07F00F80
07E00780
0FC007C0
0FC003C0
1F8003E0
1F8001C0
3F000180
3F000000
7F000000
7F000000
7F000000
7E000000
7E000000
FE000000
FE000000
FE000000
FE000000
FE000000
FE000000
FE000000
FE000000
FE000000
FE000000
FE000000
FE000000
FE000000
FE000000
FE000000
FE000000
FE000000
FE000000
7E000000
7E000000
7F000000
7F000000
7F000000
3F000020
3F000060
1F800060
1F8000E0
0FC000C0
0FC001C0
07E00380
07F00780
03F81F00
01FFFE00
00FFFC00
003FF000
000FC000
ENDCHAR
STARTCHAR d
ENCODING 100
SWIDTH 266 0
DWIDTH 33 0
BBX 31 91 0 30
VVECTOR 15 128
SWIDTH1 0 -1032
DWIDTH1 0 -128
BITMAP 
00001FF8
00001FF8
00001FF8
00001FF8
000007F8
000007F8
000007F8
000007F8
000007F8
000007F8
000007F8
000007F8
000007F8
000007F8
000007F8
000007F8
000007F8
000007F8
000007F8
000007F8
000007F8
000007F8
000007F8
000007F8
000007F8
000007F8
000007F8
000007F8
000007F8
000007F8
000007F8
000007F8
000007F8
000007F8
000007F8
000007F8
000007F8
003E07F8
00FF87F8
01FFC7F8
03FFE7F8
07FFE7F8
0FF0F7F8
0FE077F8
1FC03FF8
1FC01FF8
3F801FF8
3F800FF8
3F800FF8
7F0007F8
7F0007F8
7F0007F8
7F0007F8
FF0007F8
FE0007F8
FE0007F8
FE0007F8
FE0007F8
FE0007F8
FE0007F8
FE0007F8
FE0007F8
FE0007F8
FE0007F8
FE0007F8
FE0007F8
FE0007F8
FE0007F8
FE0007F8
FE0007F8
FE0007F8
FE0007F8
FE0007F8
FE0007F8
FF0007F8
7F0007F8
7F0007F8
7F0007F8
7F0007F8
3F800FF8
3F800FF8
3F801FF8
1FC01FF8
1FC03FF8
0FE077F8
0FF0F7F8
07FFE7F8
03FFE7FE
01FFC7FE
00FF87FE
003E07FE
ENDCHAR
STARTCHAR e
ENCODING 101
SWIDTH 258 0
DWIDTH 32 0
BBX 30 54 0 30
VVECTOR 15 128
SWIDTH1 0 -1032
DWIDTH1 0 -128
BITMAP 
000FC000
003FF000
00FFFC00
01FFFE00
03F87F00
07F03F80
07E01F80
0FC00FC0
0FC00FC0
1F8007E0
1F8007E0
3F0003F0
3F0003F0
7F0003F8
7F0003F8
7F0003F8
7E0001F8
7E0001F8
FE0001FC
FE0001FC
FE0001FC
FE0001FC
FE0001FC
FE0001FC
FE0001FC
FFFFFFFC
FFFFFFFC
FFFFFFFC
FFFFFFFC
FE000000
FE000000
FE000000
FE000000
FE000000
FE000000
FE000000
7E000000
7E000000
7F000000
7F000000
7F000000
3F000020
3F000060
1F800060
1F8000E0
0FC000C0
0FC001C0
07E00380
07F00780
03F81F00
01FFFE00
00FFFC00
003FF000
000FC000
ENDCHAR
STARTCHAR f
ENCODING 102
SWIDTH 194 0
DWIDTH 24 0
BBX 22 91 0 30
VVECTOR 11 128
SWIDTH1 0 -1032
DWIDTH1 0 -128
BITMAP 
001F00
007FC0
00FFE0
01FFF0
03F3F0
03F1F0
07E1F8
07E1F8
07E3F8
0FE3F8
0FE7FC
0FE7FC
0FE7FC
1FE7FC
1FE7FC
1FE7FC
1FE3F8
1FE3F8
1FE1F0
1FE0E0
1FE000
1FE000
1FE000
1FE000
1FE000
1FE000
1FE000
1FE000
1FE000
1FE000
1FE000
1FE000
1FE000
1FE000
1FE000
1FE000
1FE000
FFFF80
FFFF80
FFFF80
FFFF80
1FE000
1FE000
1FE000
1FE000
1FE000
1FE000
1FE000
1FE000
1FE000
1FE000
1FE000
1FE000
1FE000
1FE000
1FE000
1FE000
1FE000
1FE000
1FE000
1FE000
1FE000
1FE000
1FE000
1FE000
1FE000
1FE000
1FE000
1FE000
1FE000
1FE000
1FE000
1FE000
1FE000
1FE000
1FE000
1FE000
1FE000
1FE000
1FE000
1FE000
1FE000
1FE000
1FE000
1FE000
1FE000
1FE000
7FF800
7FF800
7FF800
7FF800
ENDCHAR
STARTCHAR g
ENCODING 103
SWIDTH 266 0
DWIDTH 33 0
BBX 31 91 0 1
VVECTOR 15 128
SWIDTH1 0 -1032
DWIDTH1 0 -128
BITMAP 
00000038
0000007C
000000FE
000000FE
000000FE
000000FE
0000007C
0000003C
003FC038
00FFF078
01FFF8F0
03FFFFE0
07F0FF00
0FE07F00
1FE07F80
1FC03F80
3FC03FC0
3F801FC0
7F801FE0
7F801FE0
7F801FE0
7F000FE0
FF000FF0
FF000FF0
FF000FF0
FF000FF0
FF000FF0
FF000FF0
FF000FF0
FF000FF0
FF000FF0
FF000FF0
FF000FF0
7F000FE0
7F801FE0
7F801FE0
7F801FE0
3F801FC0
3FC03FC0
1FC03F80
1FE07F80
0FE07F00
07F0FE00
03FFFC00
01FFF800
00FFF000
00FFC000
01C00000
03800000
07800000
07800000
0FC00000
0FC00000
0FE00000
1FF80000
1FFE0000
1FFF0000
1FFFC000
1FFFE000
1FFFF800
0FFFFE00
0FFFFF00
0FFFFF80
0FFFFF80
1DFFFFC0
387FFFC0
383FFFE0
700FFFE0
7003FFF0
6000FFF0
E0007FF0
E0001FF0
E0000FF0
E0000FF0
E00007F0
E00007F0
E00007F0
E00007F0
E00007F0
F00007F0
700007E0
78000FE0
78000FE0
3C001FC0
3E003FC0
1F80FF80
0FFFFF80
0FFFFF00
07FFFE00
03FFFC00
01FFF800
ENDCHAR
STARTCHAR h
ENCODING 104
SWIDTH 274 0
DWIDTH 34 0
BBX 32 91 0 30
VVECTOR 16 128
SWIDTH1 0 -1032
DWIDTH1 0 -128
BITMAP 
FFC00000
FFC00000
FFC00000
FFC00000
3FC00000
3FC00000
3FC00000
3FC00000
3FC00000
3FC00000
3FC00000
3FC00000
3FC00000
3FC00000
3FC00000
3FC00000
3FC00000
3FC00000
3FC00000
3FC00000
3FC00000
3FC00000
3FC00000
3FC00000
3FC00000
3FC00000
3FC00000
3FC00000
3FC00000
3FC00000
3FC00000
3FC00000
3FC00000
3FC00000
3FC00000
3FC00000
3FC00000
3FC07E00
3FC1FF80
3FC3FFC0
3FC7FFE0
3FCFFFE0
3FDFFFF0
3FDFFFF0
3FFE1FF0
3FF80FF8
3FF007F8
3FE007F8
3FE007F8
3FC003FC
3FC003FC
3FC003FC
3FC003FC
3FC003FC
3FC003FC
3FC003FC
3FC003FC
3FC003FC
3FC003FC
3FC003FC
3FC003FC
3FC003FC
3FC003FC
3FC003FC
3FC003FC
3FC003FC
3FC003FC
3FC003FC
3FC003FC
3FC003FC
3FC003FC
3FC003FC
3FC003FC
3FC003FC
3FC003FC
3FC003FC
3FC003FC
3FC003FC
3FC003FC
3FC003FC
3FC003FC
3FC003FC
3FC003FC
3FC003FC
3FC003FC
3FC003FC
3FC003FC
FFF00FFF
FFF00FFF
FFF00FFF
FFF00FFF
ENDCHAR
STARTCHAR i
ENCODING 105
SWIDTH 113 0
DWIDTH 14 0
BBX 12 80 0 30
VVECTOR 6 128
SWIDTH1 0 -1032
DWIDTH1 0 -128
BITMAP 
0E00
1F00
3F80
3F80
7FC0
7FC0
7FC0
7FC0
7FC0
7FC0
3F80
3F80
1F00
0E00
0000
0000
0000
0000
0000
0000
0000
0000
0000
0000
0000
0000
FFC0
FFC0
FFC0
FFC0
3FC0
3FC0
3FC0
3FC0
3FC0
3FC0
3FC0
3FC0
3FC0
3FC0
3FC0
3FC0
3FC0
3FC0
3FC0
3FC0
3FC0
3FC0
3FC0
3FC0
3FC0
3FC0
3FC0
3FC0
3FC0
3FC0
3FC0
3FC0
3FC0
3FC0
3FC0
3FC0
3FC0
3FC0
3FC0
3FC0
3FC0
3FC0
3FC0
3FC0
3FC0
3FC0
3FC0
3FC0
3FC0
3FC0
FFF0
FFF0
FFF0
FFF0
ENDCHAR
STARTCHAR j
ENCODING 106
SWIDTH 185 0
DWIDTH 23 0
BBX 21 109 0 1
VVECTOR 10 128
SWIDTH1 0 -1032
DWIDTH1 0 -128
BITMAP 
0001C0
0003E0
0007F0
0007F0
000FF8
000FF8
000FF8
000FF8
000FF8
000FF8
0007F0
0007F0
0003E0
0001C0
000000
000000
000000
000000
000000
000000
000000
000000
000000
000000
000000
000000
001FF8
001FF8
001FF8
001FF8
0007F8
0007F8
0007F8
0007F8
0007F8
0007F8
0007F8
0007F8
0007F8
0007F8
0007F8
0007F8
0007F8
0007F8
0007F8
0007F8
0007F8
0007F8
0007F8
0007F8
0007F8
0007F8
0007F8
0007F8
0007F8
0007F8
0007F8
0007F8
0007F8
0007F8
0007F8
0007F8
0007F8
0007F8
0007F8
0007F8
0007F8
0007F8
0007F8
0007F8
0007F8
0007F8
0007F8
0007F8
0007F8
0007F8
0007F8
0007F8
0007F8
0007F8
0007F8
0007F8
0007F8
0007F8
0007F8
0007F8
0007F8
0007F8
0007F8
0007F8
0007F8
0007F0
0007F0
0007F0
3C07F0
7E07F0
7E07E0
FF07E0
FF07E0
FF07E0
FF07C0
FF07C0
FF0FC0
7E0F80
7C1F80
7C3F00
3FFE00
1FFC00
0FF800
ENDCHAR
STARTCHAR k
ENCODING 107
SWIDTH 274 0
DWIDTH 34 0
BBX 32 91 0 30
VVECTOR 16 128
SWIDTH1 0 -1032
DWIDTH1 0 -128
BITMAP 
FFC00000
FFC00000
FFC00000
FFC00000
3FC00000
3FC00000
3FC00000
3FC00000
3FC00000
3FC00000
3FC00000
3FC00000
3FC00000
3FC00000
3FC00000
3FC00000
3FC00000
3FC00000
3FC00000
3FC00000
3FC00000
3FC00000
3FC00000
3FC00000
3FC00000
3FC00000
3FC00000
3FC00000
3FC00000
3FC00000
3FC00000
3FC00000
3FC00000
3FC00000
3FC00000
3FC00000
3FC00000
3FC07FC0
3FC07FC0
3FC07FC0
3FC07FC0
3FC01F00
3FC01E00
3FC03C00
3FC03C00
3FC07800
3FC0F000
3FC0F000
3FC1E000
3FC3C000
3FC3C000
3FC78000
3FCF0000
3FCF0000
3FDF0000
3FFF0000
3FFF8000
3FFF8000
3FFFC000
3FFFC000
3FFFC000
3FFFE000
3FFFE000
3FFFF000
3FDFF000
3FDFF800
3FCFF800
3FCFF800
3FCFFC00
3FC7FC00
3FC7FE00
3FC3FE00
3FC3FF00
3FC1FF00
3FC1FF00
3FC0FF80
3FC0FF80
3FC07FC0
3FC07FC0
3FC07FE0
3FC03FE0
3FC03FF0
3FC01FF0
3FC01FF0
3FC01FF8
3FC00FF8
3FC00FFC
FFF03FFF
FFF03FFF
FFF03FFF
FFF03FFF
ENDCHAR
STARTCHAR l
ENCODING 108
SWIDTH 113 0
DWIDTH 14 0
BBX 12 91 0 30
VVECTOR 6 128
SWIDTH1 0 -1032
DWIDTH1 0 -128
BITMAP 
FFC0
FFC0
FFC0
FFC0
3FC0
3FC0
3FC0
3FC0
3FC0
3FC0
3FC0
3FC0
3FC0
3FC0
3FC0
3FC0
3FC0
3FC0
3FC0
3FC0
3FC0
3FC0
3FC0
3FC0
3FC0
3FC0
3FC0
3FC0
3FC0
3FC0
3FC0
3FC0
3FC0
3FC0
3FC0
3FC0
3FC0
3FC0
3FC0
3FC0
3FC0
3FC0
3FC0
3FC0
3FC0
3FC0
3FC0
3FC0
3FC0
3FC0
3FC0
3FC0
3FC0
3FC0
3FC0
3FC0
3FC0
3FC0
3FC0
3FC0
3FC0
3FC0
3FC0
3FC0
3FC0
3FC0
3FC0
3FC0
3FC0
3FC0
3FC0
3FC0
3FC0
3FC0
3FC0
3FC0
3FC0
3FC0
3FC0
3FC0
3FC0
3FC0
3FC0
3FC0
3FC0
3FC0
3FC0
FFF0
FFF0
FFF0
FFF0
ENDCHAR
STARTCHAR m
ENCODING 109
SWIDTH 339 0
DWIDTH 42 0
BBX 40 54 0 30
VVECTOR 20 128
SWIDTH1 0 -1032
DWIDTH1 0 -128
BITMAP 
FFC0F003C0
FFC1F807E0
FFC3FC0FF0
FFC7FE1FF8
3FCFFE3FF8
3FDFFE7FF8
3FDFFF7FFC
3FFFFFFFFC
3FFBFFEFFC
3FF1FFC7FC
3FE0FF83FC
3FE0FF83FC
3FC0FF03FC
3FC0FF03FC
3FC0FF03FC
3FC0FF03FC
3FC0FF03FC
3FC0FF03FC
3FC0FF03FC
3FC0FF03FC
3FC0FF03FC
3FC0FF03FC
3FC0FF03FC
3FC0FF03FC
3FC0FF03FC
3FC0FF03FC
3FC0FF03FC
3FC0FF03FC
3FC0FF03FC
3FC0FF03FC
3FC0FF03FC
3FC0FF03FC
3FC0FF03FC
3FC0FF03FC
3FC0FF03FC
3FC0FF03FC
3FC0FF03FC
3FC0FF03FC
3FC0FF03FC
3FC0FF03FC
3FC0FF03FC
3FC0FF03FC
3FC0FF03FC
3FC0FF03FC
3FC0FF03FC
3FC0FF03FC
3FC0FF03FC
3FC0FF03FC
3FC0FF03FC
3FC0FF03FC
FFF3FFCFFF
FFF3FFCFFF
FFF3FFCFFF
FFF3FFCFFF
ENDCHAR
STARTCHAR n
ENCODING 110
SWIDTH 274 0
DWIDTH 34 0
BBX 32 54 0 30
VVECTOR 16 128
SWIDTH1 0 -1032
DWIDTH1 0 -128
BITMAP 
FFC07E00
FFC1FF80
FFC3FFC0
FFC7FFE0
3FCFFFE0
3FDFFFF0
3FDFFFF0
3FFE1FF0
3FF80FF8
3FF007F8
3FE007F8
3FE007F8
3FC003FC
3FC003FC
3FC003FC
3FC003FC
3FC003FC
3FC003FC
3FC003FC
3FC003FC
3FC003FC
3FC003FC
3FC003FC
3FC003FC
3FC003FC
3FC003FC
3FC003FC
3FC003FC
3FC003FC
3FC003FC
3FC003FC
3FC003FC
3FC003FC
3FC003FC
3FC003FC
3FC003FC
3FC003FC
3FC003FC
3FC003FC
3FC003FC
3FC003FC
3FC003FC
3FC003FC
3FC003FC
3FC003FC
3FC003FC
3FC003FC
3FC003FC
3FC003FC
3FC003FC
FFF00FFF
FFF00FFF
FFF00FFF
FFF00FFF
ENDCHAR
STARTCHAR o
ENCODING 111
SWIDTH 266 0
DWIDTH 33 0
BBX 31 54 0 30
VVECTOR 15 128
SWIDTH1 0 -1032
DWIDTH1 0 -128
BITMAP 
000FE000
003FF800
00FFFE00
01FFFF00
03F87F80
07F01FC0
07E00FC0
0FC007E0
0FC007E0
1F8003F0
1F8003F0
3F0001F8
3F0001F8
7F0001FC
7F0001FC
7F0001FC
7E0000FC
7E0000FC
FE0000FE
FE0000FE
FE0000FE
FE0000FE
FE0000FE
FE0000FE
FE0000FE
FE0000FE
FE0000FE
FE0000FE
FE0000FE
FE0000FE
FE0000FE
FE0000FE
FE0000FE
FE0000FE
FE0000FE
FE0000FE
7E0000FC
7E0000FC
7F0001FC
7F0001FC
7F0001FC
3F0001F8
3F0001F8
1F8003F0
1F8003F0
0FC007E0
0FC007E0
07E00FC0
07F01FC0
03F87F80
01FFFF00
00FFFE00
003FF800
000FE000
ENDCHAR
STARTCHAR p
ENCODING 112
SWIDTH 274 0
DWIDTH 34 0
BBX 32 83 0 1
VVECTOR 16 128
SWIDTH1 0 -1032
DWIDTH1 0 -128
BITMAP 
FFE07C00
FFE1FF00
FFE3FF80
FFE7FFC0
3FE7FFE0
3FEF0FF0
3FEE07F0
3FFC03F8
3FF803F8
3FF801FC
3FF001FC
3FF001FC
3FE000FE
3FE000FE
3FE000FE
3FE000FE
3FE000FF
3FE0007F
3FE0007F
3FE0007F
3FE0007F
3FE0007F
3FE0007F
3FE0007F
3FE0007F
3FE0007F
3FE0007F
3FE0007F
3FE0007F
3FE0007F
3FE0007F
3FE0007F
3FE0007F
3FE0007F
3FE0007F
3FE0007F
3FE0007F
3FE000FF
3FE000FE
3FE000FE
3FE000FE
3FE000FE
3FF001FC
3FF001FC
3FF801FC
3FF803F8
3FFC03F8
3FEE07F0
3FEF0FF0
3FE7FFE0
3FE7FFC0
3FE3FF80
3FE1FF00
3FE07C00
3FE00000
3FE00000
3FE00000
3FE00000
3FE00000
3FE00000
3FE00000
3FE00000
3FE00000
3FE00000
3FE00000
3FE00000
3FE00000
3FE00000
3FE00000
3FE00000
3FE00000
3FE00000
3FE00000
3FE00000
3FE00000
3FE00000
3FE00000
3FE00000
3FE00000
3FE00000
FFE00000
FFE00000
FFE00000
ENDCHAR
STARTCHAR q
ENCODING 113
SWIDTH 266 0
DWIDTH 33 0
BBX 31 83 0 1
VVECTOR 15 128
SWIDTH1 0 -1032
DWIDTH1 0 -128
BITMAP 
003E07FE
00FF87FE
01FFC7FE
03FFE7FE
07FFE7F8
0FF0F7F8
0FE077F8
1FC03FF8
1FC01FF8
3F801FF8
3F800FF8
3F800FF8
7F0007F8
7F0007F8
7F0007F8
7F0007F8
FF0007F8
FE0007F8
FE0007F8
FE0007F8
FE0007F8
FE0007F8
FE0007F8
FE0007F8
FE0007F8
FE0007F8
FE0007F8
FE0007F8
FE0007F8
FE0007F8
FE0007F8
FE0007F8
FE0007F8
FE0007F8
FE0007F8
FE0007F8
FE0007F8
FF0007F8
7F0007F8
7F0007F8
7F0007F8
7F0007F8
3F800FF8
3F800FF8
3F801FF8
1FC01FF8
1FC03FF8
0FE077F8
0FF0F7F8
07FFE7F8
03FFE7F8
01FFC7F8
00FF87F8
003E07F8
000007F8
000007F8
000007F8
000007F8
000007F8
000007F8
000007F8
000007F8
000007F8
000007F8
000007F8
000007F8
000007F8
000007F8
000007F8
000007F8
000007F8
000007F8
000007F8
000007F8
000007F8
000007F8
000007F8
000007F8
000007F8
000007F8
000007FE
000007FE
000007FE
ENDCHAR
STARTCHAR r
ENCODING 114
SWIDTH 250 0
DWIDTH 31 0
BBX 29 54 0 30
VVECTOR 14 128
SWIDTH1 0 -1032
DWIDTH1 0 -128
BITMAP 
FFC01F00
FFC07FC0
FFC0FFE0
FFC1FFE0
3FC3FFF0
3FC7FFF0
3FCFFFF0
3FCFFFF8
3FDFFFF8
3FDF9FF8
3FFE1FF8
3FFC1FF8
3FF81FF8
3FF01FF8
3FE01FF8
3FE00FF0
3FC00FF0
3FC007E0
3FC003C0
3FC00000
3FC00000
3FC00000
3FC00000
3FC00000
3FC00000
3FC00000
3FC00000
3FC00000
3FC00000
3FC00000
3FC00000
3FC00000
3FC00000
3FC00000
3FC00000
3FC00000
3FC00000
3FC00000
3FC00000
3FC00000
3FC00000
3FC00000
3FC00000
3FC00000
3FC00000
3FC00000
3FC00000
3FC00000
3FC00000
3FC00000
FFF00000
FFF00000
FFF00000
FFF00000
ENDCHAR
STARTCHAR s
ENCODING 115
SWIDTH 242 0
DWIDTH 30 0
BBX 28 54 0 30
VVECTOR 14 128
SWIDTH1 0 -1032
DWIDTH1 0 -128
BITMAP 
007F0780
01FFC780
03FFF780
07FFFF80
0F81FF80
1F00FF80
1F007F80
3E003F80
3E001F80
7E000F80
7E000F80
7E000780
FE000780
FE000000
FE000000
FF000000
FF000000
FF800000
FFC00000
FFF00000
7FFE0000
7FFFC000
7FFFF000
3FFFFC00
3FFFFF00
1FFFFF80
1FFFFF80
0FFFFFC0
07FFFFC0
03FFFFE0
01FFFFE0
007FFFE0
0007FFF0
0001FFF0
00007FF0
00001FF0
00000FF0
000007F0
000007F0
000003F0
000003F0
F00003E0
F00003E0
F80003E0
F80003E0
FC0003C0
FE0007C0
FF000F80
FF801F80
FFE07F00
FFFFFE00
F7FFFC00
F1FFF000
F07FC000
ENDCHAR
STARTCHAR t
ENCODING 116
SWIDTH 177 0
DWIDTH 22 0
BBX 20 67 0 30
VVECTOR 10 128
SWIDTH1 0 -1032
DWIDTH1 0 -128
BITMAP 
1FE000
1FE000
1FE000
1FE000
1FE000
1FE000
1FE000
1FE000
1FE000
1FE000
1FE000
1FE000
1FE000
FFFE00
FFFE00
FFFE00
FFFE00
1FE000
1FE000
1FE000
1FE000
1FE000
1FE000
1FE000
1FE000
1FE000
1FE000
1FE000
1FE000
1FE000
1FE000
1FE000
1FE000
1FE000
1FE000
1FE000
1FE000
1FE000
1FE000
1FE000
1FE000
1FE000
1FE000
1FE000
1FE000
1FE000
1FE000
1FE000
1FE000
1FE000
1FE000
1FE000
1FE000
1FE000
1FE000
1FE000
0FF010
0FF010
0FF830
0FFE60
07FFE0
07FFE0
03FFC0
03FFC0
01FF80
00FF00
007C00
ENDCHAR
STARTCHAR u
ENCODING 117
SWIDTH 274 0
DWIDTH 34 0
BBX 32 54 0 30
VVECTOR 16 128
SWIDTH1 0 -1032
DWIDTH1 0 -128
BITMAP 
FFC00FFC
FFC00FFC
FFC00FFC
FFC00FFC
3FC003FC
3FC003FC
3FC003FC
3FC003FC
3FC003FC
3FC003FC
3FC003FC
3FC003FC
3FC003FC
3FC003FC
3FC003FC
3FC003FC
3FC003FC
3FC003FC
3FC003FC
3FC003FC
3FC003FC
3FC003FC
3FC003FC
3FC003FC
3FC003FC
3FC003FC
3FC003FC
3FC003FC
3FC003FC
3FC003FC
3FC003FC
3FC003FC
3FC003FC
3FC003FC
3FC003FC
3FC003FC
3FC003FC
3FC003FC
3FC003FC
3FC003FC
3FC003FC
3FC003FC
1FE007FC
1FE007FC
1FE00FFC
1FF01FFC
0FF87FFC
0FFFFBFC
0FFFFBFC
07FFF3FC
07FFE3FF
03FFC3FF
01FF83FF
007E03FF
ENDCHAR
STARTCHAR v
ENCODING 118
SWIDTH 274 0
DWIDTH 34 0
BBX 32 54 0 30
VVECTOR 16 128
SWIDTH1 0 -1032
DWIDTH1 0 -128
BITMAP 
FFF801FF
FFF801FF
FFF801FF
FFF801FF
3FE00078
3FE00078
3FE00070
1FE00070
1FF000F0
1FF000F0
0FF000E0
0FF000E0
0FF801E0
0FF801C0
07F801C0
07F801C0
07FC03C0
07FC0380
03FC0380
03FE0380
03FE0780
03FE0700
01FE0700
01FF0700
01FF0F00
00FF0E00
00FF0E00
00FF8E00
00FF9E00
007F9C00
007F9C00
007FDC00
007FFC00
003FF800
003FF800
003FF800
003FF000
001FF000
001FF000
001FF000
000FE000
000FE000
000FE000
000FE000
0007C000
0007C000
0007C000
0007C000
00038000
00038000
00038000
00030000
00010000
00010000
ENDCHAR
STARTCHAR w
ENCODING 119
SWIDTH 355 0
DWIDTH 44 0
BBX 42 54 0 30
VVECTOR 21 128
SWIDTH1 0 -1032
DWIDTH1 0 -128
BITMAP 
FFF800007FC0
FFF800007FC0
FFF800007FC0
FFF800007FC0
3FE000001E00
3FE000001E00
3FE000001C00
1FE000001C00
1FF000003C00
1FF000003C00
0FF000003800
0FF000003800
0FF800007800
0FF800007000
07F800007000
07F800007000
07FC0200F000
07FC0300E000
03FC0300E000
03FE0300E000
03FE0781E000
03FE0781C000
01FE0781C000
01FF0781C000
01FF0FC3C000
00FF0FC38000
00FF0FC38000
00FF8FE38000
00FF9FE78000
007F9FE70000
007F9FE70000
007FDFF70000
007FFFFF0000
003FFFFE0000
003FFFFE0000
003FFFFE0000
003FFFFC0000
001FF7FC0000
001FF7FC0000
001FF7FC0000
000FE3F80000
000FE3F80000
000FE3F80000
000FE3F80000
0007C1F00000
0007C1F00000
0007C1F00000
0007C1F00000
000380E00000
000380E00000
000380E00000
000300C00000
000100400000
000100400000
ENDCHAR
STARTCHAR x
ENCODING 120
SWIDTH 274 0
DWIDTH 34 0
BBX 32 54 0 30
VVECTOR 16 128
SWIDTH1 0 -1032
DWIDTH1 0 -128
BITMAP 
FFFC03FF
FFFC03FF
FFFC03FF
FFFC03FF
3FF00078
1FF00070
1FF000F0
0FF800E0
0FF801E0
0FF801C0
07FC03C0
07FC0380
03FE0780
03FE0780
03FE0F00
01FF0F00
01FF1E00
00FF9E00
00FFBC00
00FFBC00
007FF800
007FF800
003FF000
003FF000
003FF000
001FF000
001FF000
000FF800
000FF800
0007FC00
0007FC00
000FFC00
000FFE00
001FFE00
001FFF00
003DFF00
003DFF00
0078FF80
0078FF80
00F0FFC0
00F07FC0
01E07FC0
01E03FE0
03C03FE0
03C03FF0
03801FF0
07801FF0
07000FF8
0F000FF8
1F000FFC
FFC03FFF
FFC03FFF
FFC03FFF
FFC03FFF
ENDCHAR
STARTCHAR y
ENCODING 121
SWIDTH 274 0
DWIDTH 34 0
BBX 32 83 0 1
VVECTOR 16 128
SWIDTH1 0 -1032
DWIDTH1 0 -128
BITMAP 
FFF801FF
FFF801FF
FFF801FF
FFF801FF
3FE00078
3FE00078
3FE00070
1FE00070
1FF000F0
1FF000F0
0FF000E0
0FF000E0
0FF801E0
0FF801C0
07F801C0
07F801C0
07FC03C0
07FC0380
03FC0380
03FE0380
03FE0780
03FE0700
01FE0700
01FF0700
01FF0F00
00FF0E00
00FF0E00
00FF8E00
00FF9E00
007F9C00
007F9C00
007FDC00
007FFC00
003FF800
003FF800
003FF800
003FF000
001FF000
001FF000
001FF000
000FE000
000FE000
000FE000
000FE000
0007C000
0007C000
0007C000
0007C000
00038000
00038000
00078000
00070000
00070000
00070000
000F0000
000E0000
000E0000
000E0000
001E0000
001C0000
001C0000
001C0000
003C0000
00380000
00380000
00780000
00780000
00700000
00700000
00F00000
00E00000
1CE00000
3EE00000
7FE00000
7FC00000
FFC00000
FFC00000
FF800000
FF800000
FF800000
7F000000
7F000000
3E000000
ENDCHAR
STARTCHAR z
ENCODING 122
SWIDTH 258 0
DWIDTH 32 0
BBX 30 54 0 30
VVECTOR 15 128
SWIDTH1 0 -1032
DWIDTH1 0 -128
BITMAP 
FFFFFFF8
FFFFFFF8
FFFFFFF8
FFFFFFF0
FE003FF0
F8003FF0
F8003FE0
F0003FE0
F0007FC0
E0007FC0
E000FFC0
E000FF80
E000FF80
0001FF80
0001FF00
0001FF00
0003FF00
0003FE00
0003FE00
0007FC00
0007FC00
000FFC00
000FF800
000FF800
001FF800
001FF000
001FF000
003FE000
003FE000
007FE000
007FC000
007FC000
00FF8000
00FF8000
00FF8000
01FF0000
01FF0000
03FF0000
03FE0000
03FE0000
07FC0000
07FC001C
07FC001C
0FF8001C
0FF8001C
1FF8003C
1FF0003C
1FF0007C
3FE0007C
3FE001FC
3FFFFFFC
7FFFFFFC
7FFFFFFC
FFFFFFFC
ENDCHAR
ENDFONT
